<svg width="50" height="50" viewBox="0 0 50 50" fill="none" xmlns="http://www.w3.org/2000/svg">
<g clip-path="url(#clip0_161_1919)">
<path d="M14.5827 9.37436C11.1309 9.37436 8.33268 12.1726 8.33268 15.6243C8.33268 16.809 8.66231 17.9168 9.23485 18.8608C6.34782 19.413 4.16602 21.9514 4.16602 24.9993C4.16602 28.0473 6.34782 30.5857 9.23485 31.1379M14.5827 9.37436C14.5827 6.49787 16.9145 4.16602 19.791 4.16602C22.6675 4.16602 24.9994 6.49787 24.9994 9.37436V40.6243C24.9994 43.5008 22.6675 45.8327 19.791 45.8327C16.9145 45.8327 14.5827 43.5008 14.5827 40.6243C11.1309 40.6243 8.33268 37.8261 8.33268 34.3743C8.33268 33.1896 8.66231 32.0819 9.23485 31.1379M14.5827 9.37436C14.5827 11.0783 15.401 12.5912 16.666 13.5414M9.23485 31.1379C9.97744 29.9135 11.1287 28.9644 12.4994 28.48" stroke="white" stroke-width="1.5" stroke-linecap="round" stroke-linejoin="round"/>
<path d="M40.1042 9.89551L35.4167 14.583H31.25M38.5417 9.89551C38.5417 10.7584 39.2413 11.458 40.1042 11.458C40.9672 11.458 41.6667 10.7584 41.6667 9.89551C41.6667 9.03257 40.9672 8.33301 40.1042 8.33301C39.2413 8.33301 38.5417 9.03257 38.5417 9.89551Z" stroke="white" stroke-width="1.5" stroke-linecap="round" stroke-linejoin="round"/>
<path d="M40.1042 40.1035L35.4167 35.416H31.25M38.5417 40.1035C38.5417 39.2406 39.2413 38.541 40.1042 38.541C40.9672 38.541 41.6667 39.2406 41.6667 40.1035C41.6667 40.9665 40.9672 41.666 40.1042 41.666C39.2413 41.666 38.5417 40.9665 38.5417 40.1035Z" stroke="white" stroke-width="1.5" stroke-linecap="round" stroke-linejoin="round"/>
<path d="M40.1042 24.999H31.25M38.5417 24.999C38.5417 25.862 39.2413 26.5615 40.1042 26.5615C40.9672 26.5615 41.6667 25.862 41.6667 24.999C41.6667 24.1361 40.9672 23.4365 40.1042 23.4365C39.2413 23.4365 38.5417 24.1361 38.5417 24.999Z" stroke="white" stroke-width="1.5" stroke-linecap="round" stroke-linejoin="round"/>
</g>
<defs>
<clipPath id="clip0_161_1919">
<rect width="50" height="50" fill="white"/>
</clipPath>
</defs>
</svg>
