<svg width="60" height="60" viewBox="0 0 60 60" fill="none" xmlns="http://www.w3.org/2000/svg">
<path d="M22.5915 27.1663L25.2312 32.4893C25.5911 33.2303 26.551 33.9411 27.3609 34.0772L32.1454 34.8786C35.2051 35.3928 35.925 37.6309 33.7202 39.8387L30.0006 43.5891C29.3707 44.2242 29.0257 45.4491 29.2207 46.3262L30.2856 50.9687C31.1255 54.6435 29.1907 56.065 25.9661 54.1444L21.4816 51.4678C20.6717 50.9839 19.3368 50.9839 18.5119 51.4678L14.0274 54.1444C10.8178 56.065 8.86797 54.6283 9.70788 50.9687L10.7728 46.3262C10.9677 45.4491 10.6228 44.2242 9.99285 43.5891L6.27326 39.8387C4.0835 37.6309 4.78842 35.3928 7.84808 34.8786L12.6326 34.0772C13.4275 33.9411 14.3874 33.2303 14.7473 32.4893L17.387 27.1663C18.8269 24.2779 21.1666 24.2779 22.5915 27.1663Z" stroke="white" stroke-width="3" stroke-linecap="round" stroke-linejoin="round"/>
<path d="M55 5L35 25M40 5L27.5 17.5M50 25L42.5 32.5" stroke="white" stroke-width="3" stroke-linecap="round"/>
</svg>
