<svg width="112" height="88" viewBox="0 0 112 88" fill="none" xmlns="http://www.w3.org/2000/svg">
<path d="M34.105 8.4065C34.4926 8.5308 34.8596 8.68177 35.2251 8.86197C35.2719 8.88503 35.3188 8.90799 35.3657 8.93094C35.54 9.01621 35.7141 9.10178 35.888 9.18762C36.0364 9.2608 36.185 9.33335 36.3339 9.40515C36.3719 9.42347 36.4098 9.44179 36.4477 9.46011C36.5143 9.49222 36.5808 9.5243 36.6473 9.55633C36.9319 9.69337 37.2157 9.83015 37.4913 9.9849C37.6463 10.0717 37.8035 10.1534 37.9613 10.2349C38.1351 10.3247 38.3081 10.4153 38.4791 10.5106C38.6953 10.631 38.915 10.7443 39.135 10.8575C39.283 10.9337 39.4306 11.0106 39.5775 11.0887C39.7602 11.1859 39.9436 11.2814 40.1273 11.3764C40.1435 11.3847 40.1597 11.3931 40.1764 11.4017C40.4581 11.5473 40.7409 11.6906 41.0246 11.8323C41.1706 11.9054 41.3157 11.9798 41.4597 12.0569C41.7081 12.1896 41.9603 12.3147 42.2121 12.4408C42.7499 12.7102 42.7499 12.7102 42.9493 12.8172C43.1054 12.9009 43.2632 12.9811 43.4215 13.0606C43.4402 13.0701 43.4402 13.0701 43.4594 13.0797C43.5499 13.1252 43.6404 13.1705 43.7309 13.2159C43.8341 13.2676 43.9372 13.3193 44.0403 13.3712C44.0529 13.3775 44.0654 13.3838 44.0783 13.3902C44.2377 13.4704 44.396 13.5522 44.5532 13.6365C44.6942 13.7118 44.8369 13.7838 44.9798 13.8556C44.9923 13.8619 45.0048 13.8682 45.0177 13.8746C45.1082 13.9201 45.1987 13.9655 45.2892 14.0108C45.3924 14.0625 45.4955 14.1143 45.5986 14.1661C45.6112 14.1724 45.6237 14.1787 45.6367 14.1852C45.7806 14.2576 45.9239 14.3309 46.0659 14.4071C46.2277 14.4939 46.3913 14.5768 46.5553 14.6592C46.5687 14.6659 46.5821 14.6727 46.5959 14.6796C46.6929 14.7283 46.7899 14.777 46.8869 14.8257C46.9975 14.8811 47.1081 14.9365 47.2186 14.9921C47.232 14.9988 47.2454 15.0056 47.2592 15.0125C47.4232 15.095 47.5863 15.1789 47.748 15.2658C47.8949 15.3443 48.0437 15.4191 48.1925 15.4939C48.2059 15.5006 48.2193 15.5074 48.2331 15.5143C48.3301 15.563 48.4271 15.6117 48.5241 15.6603C48.6347 15.7158 48.7453 15.7712 48.8558 15.8268C48.8692 15.8335 48.8826 15.8403 48.8964 15.8472C49.0608 15.9299 49.2243 16.0141 49.3865 16.1012C49.5302 16.1779 49.6756 16.2511 49.8211 16.3242C49.834 16.3308 49.847 16.3373 49.8603 16.344C49.9541 16.3911 50.0478 16.4381 50.1416 16.4851C50.2485 16.5387 50.3553 16.5923 50.4621 16.6459C50.4751 16.6525 50.4881 16.659 50.5015 16.6657C50.6631 16.747 50.8238 16.8299 50.9833 16.9155C51.1273 16.9924 51.273 17.0658 51.4188 17.1391C51.4318 17.1456 51.4447 17.1521 51.4581 17.1588C51.5518 17.2059 51.6456 17.2529 51.7394 17.2999C51.8462 17.3535 51.9531 17.4071 52.0599 17.4608C52.0729 17.4673 52.0858 17.4738 52.0992 17.4805C52.2617 17.5623 52.4233 17.6456 52.5837 17.7316C52.7211 17.805 52.8601 17.8752 52.9993 17.9452C53.0114 17.9513 53.0235 17.9573 53.0359 17.9636C53.1231 18.0074 53.2104 18.0511 53.2977 18.0948C53.3971 18.1447 53.4966 18.1946 53.596 18.2445C53.6081 18.2506 53.6202 18.2567 53.6326 18.2629C53.7905 18.3424 53.9474 18.4235 54.1032 18.5071C54.3256 18.6258 54.5517 18.7372 54.777 18.85C55.2958 19.1098 55.2958 19.1098 55.5439 19.2427C55.753 19.3543 55.9656 19.4594 56.1775 19.5655C56.421 19.6874 56.6641 19.8095 56.9042 19.9379C57.1072 20.0462 57.3132 20.1482 57.5189 20.2511C57.7568 20.3702 57.9942 20.4897 58.2288 20.6152C58.4113 20.7125 58.5963 20.8046 58.7813 20.897C59.0012 21.0069 59.2202 21.118 59.4371 21.2338C59.5671 21.3031 59.6982 21.3698 59.83 21.4354C60.0223 21.5314 60.2137 21.6288 60.4031 21.7304C60.5351 21.801 60.6686 21.8683 60.8026 21.9348C60.9174 21.992 61.0308 22.0515 61.144 22.1118C61.358 22.2257 61.5736 22.3365 61.7894 22.4472C62.0184 22.5646 62.2471 22.6825 62.4743 22.8035C62.6134 22.8775 62.7531 22.9501 62.893 23.0224C63.1108 23.1351 63.3283 23.2484 63.5447 23.3637C63.6102 23.3987 63.676 23.4332 63.7418 23.4676C63.9271 23.5645 64.1116 23.6623 64.2945 23.7638C64.4704 23.8614 64.6484 23.9546 64.8271 24.047C65.0584 24.1666 65.2877 24.2894 65.5154 24.4161C65.5682 24.4453 65.6213 24.4739 65.6746 24.5024C66.27 24.8223 66.8187 25.2199 67.3696 25.6108C67.5714 25.7539 67.7742 25.8956 67.9782 26.0356C67.9988 26.0498 68.0195 26.064 68.0408 26.0786C68.2048 26.2131 68.2048 26.2131 68.3875 26.2927C68.3738 26.2043 68.3601 26.1159 68.3464 26.0275C68.3418 25.9975 68.3371 25.9675 68.3325 25.9374C68.3258 25.8941 68.3191 25.8508 68.3123 25.8075C68.3103 25.7942 68.3082 25.7809 68.3061 25.7672C68.2942 25.6905 68.2819 25.614 68.2691 25.5375C68.6549 25.5228 68.9989 25.5371 69.3726 25.6451C69.4355 25.6631 69.4986 25.6802 69.5617 25.6974C69.6528 25.7224 69.7438 25.7479 69.8348 25.7735C69.8521 25.7783 69.8694 25.7831 69.8872 25.7881C70.7257 26.0232 71.1765 26.3885 71.6488 27.1168C71.6845 27.1715 71.7206 27.226 71.7569 27.2804C71.9218 27.528 72.0833 27.7776 72.2412 28.0299C72.2723 28.0796 72.3035 28.1291 72.3348 28.1786C72.3937 28.2717 72.452 28.3652 72.51 28.4589C72.52 28.4748 72.5299 28.4907 72.5401 28.5071C73.0147 29.2723 73.2443 30.0474 73.0404 30.9429C72.9758 31.2053 72.8663 31.4393 72.7459 31.6799C72.7003 31.7715 72.6562 31.8639 72.6121 31.9563C72.5868 32.0089 72.5616 32.0615 72.5364 32.1142C72.5198 32.1488 72.5032 32.1835 72.4866 32.2181C72.4631 32.2672 72.4395 32.3163 72.4158 32.3654C72.4089 32.3799 72.4019 32.3945 72.3948 32.4095C72.2506 32.7073 72.0618 32.8334 71.7537 32.944C71.5716 33.0018 71.3886 32.9881 71.2082 32.9304C71.1909 32.8404 71.1858 32.7546 71.185 32.6629C71.1845 32.634 71.1841 32.605 71.1836 32.5761C71.1829 32.5312 71.1823 32.4864 71.182 32.4416C71.1791 32.0383 71.086 31.6697 70.8137 31.3604C70.7993 31.3432 70.7993 31.3432 70.7847 31.3257C70.1724 30.6458 68.8965 30.3935 68.0317 30.3491C67.8603 30.3427 67.6905 30.3468 67.5196 30.3605C67.4991 30.3622 67.4787 30.3638 67.4577 30.3655C67.2306 30.3852 67.0053 30.4178 66.7799 30.4509C66.6256 30.4735 66.4719 30.4943 66.3163 30.5059C66.3968 29.8224 66.6706 29.207 67.1392 28.7072C67.1861 28.6581 67.1861 28.6581 67.2237 28.598C67.1356 28.6061 67.0475 28.6142 66.9594 28.6224C66.9295 28.6252 66.8995 28.6279 66.8696 28.6307C66.8265 28.6346 66.7833 28.6386 66.7402 28.6426C66.7143 28.645 66.6883 28.6474 66.6616 28.6499C66.5767 28.6588 66.5767 28.6588 66.4938 28.6775C66.4602 28.7226 66.4362 28.7618 66.4112 28.8117C66.4037 28.8262 66.3962 28.8408 66.3884 28.8559C66.3125 29.0105 66.2604 29.1729 66.2065 29.3363C66.0554 29.7923 65.8403 30.2003 65.5273 30.5655C65.5078 30.5884 65.5078 30.5884 65.4879 30.6118C65.0306 31.136 64.4767 31.5205 63.8767 31.8618C63.3709 32.1509 62.8824 32.4728 62.3995 32.7987C62.2547 32.8964 62.1095 32.9934 61.964 33.09C61.9455 33.1023 61.927 33.1145 61.9079 33.1272C61.8126 33.1904 61.7173 33.2536 61.6219 33.3167C61.3901 33.4699 61.3901 33.4699 61.1611 33.6273C60.9116 33.8016 60.6622 33.9327 60.379 34.0434C60.3621 34.0507 60.3451 34.058 60.3276 34.0655C60.2804 34.0831 60.2804 34.0831 60.2212 34.0831C60.2008 33.8799 60.1918 33.6773 60.1869 33.4732C60.1846 33.3814 60.1783 33.2918 60.1674 33.2007C60.1234 32.7324 60.3442 32.334 60.5367 31.9205C60.5643 31.8602 60.5902 31.7992 60.6157 31.738C60.4061 31.8569 60.1979 31.9785 59.9939 32.1069C59.9451 32.1355 59.9451 32.1355 59.8892 32.1602C59.8328 32.187 59.7916 32.2099 59.7478 32.2547C59.7259 32.342 59.7383 32.4244 59.7478 32.5131C59.7504 32.5567 59.7523 32.6002 59.7543 32.6438C59.7587 32.7397 59.7647 32.8355 59.7704 32.9313C59.7761 33.0281 59.7811 33.1248 59.7852 33.2216C59.7865 33.2514 59.788 33.2811 59.7897 33.3108C59.8019 33.5341 59.7748 33.7478 59.7411 33.9679C59.6846 34.3374 59.6603 34.7059 59.6409 35.0791C59.6361 35.1688 59.631 35.2586 59.6259 35.3483C59.6187 35.4756 59.6115 35.603 59.6045 35.7303C59.4683 38.202 59.4683 38.202 59.0969 38.5944C59.0737 38.6208 59.0507 38.6472 59.0278 38.6739C58.9107 38.809 58.7935 38.9432 58.6652 39.0678C58.6306 39.1037 58.5988 39.1401 58.5667 39.1782C58.4657 39.2947 58.3563 39.4027 58.2475 39.5117C58.2247 39.5346 58.2019 39.5576 58.1791 39.5805C58.1196 39.6404 58.06 39.7002 58.0004 39.7601C57.9394 39.8213 57.8785 39.8826 57.8175 39.9439C57.6983 40.0639 57.579 40.1837 57.4597 40.3035C57.4118 40.2571 57.3834 40.2162 57.3542 40.1557C57.3413 40.1293 57.3413 40.1293 57.3282 40.1024C57.3191 40.0835 57.31 40.0646 57.3006 40.0452C57.2811 40.005 57.2614 39.9649 57.2418 39.9248C57.232 39.9048 57.2221 39.8847 57.212 39.8641C57.1722 39.7838 57.1305 39.7045 57.0886 39.6253C57.0058 39.4685 56.9267 39.3099 56.8482 39.1509C56.7709 38.9943 56.6931 38.8382 56.6115 38.6838C56.5235 38.5175 56.44 38.349 56.3567 38.1802C56.2854 38.0358 56.2133 37.8921 56.1381 37.7498C56.0501 37.5834 55.9666 37.4149 55.8833 37.2461C55.812 37.1018 55.7399 36.958 55.6647 36.8157C55.5462 36.5915 55.4346 36.3637 55.3224 36.1362C55.2723 36.0347 55.2219 35.9334 55.1716 35.832C55.2982 35.7149 55.4308 35.6081 55.5676 35.5034C55.6394 35.4482 55.7106 35.3923 55.7818 35.3364C55.8045 35.3186 55.8045 35.3186 55.8277 35.3004C55.9533 35.2019 56.0785 35.1029 56.2035 35.0038C56.2605 34.9585 56.3177 34.9133 56.3748 34.8681C56.3978 34.8499 56.4208 34.8317 56.4438 34.8135C58.2388 33.3925 58.2388 33.3925 58.2734 33.3651C58.2963 33.347 58.3191 33.3289 58.342 33.3108C58.4016 33.2636 58.4613 33.2165 58.5212 33.1697C58.5336 33.16 58.546 33.1503 58.5587 33.1403C58.5822 33.1219 58.6057 33.1036 58.6293 33.0853C58.6984 33.031 58.7601 32.974 58.8207 32.9106C58.8142 32.8975 58.8077 32.8843 58.801 32.8708C58.7278 32.8823 58.6741 32.9026 58.6101 32.9401C58.5924 32.9503 58.5747 32.9606 58.5565 32.9712C58.5375 32.9823 58.5185 32.9935 58.499 33.005C58.458 33.0287 58.4169 33.0524 58.3759 33.0761C58.3548 33.0882 58.3338 33.1004 58.3121 33.1129C58.2128 33.1695 58.1124 33.2239 58.012 33.2782C57.8564 33.3626 57.702 33.4486 57.5484 33.5366C57.3753 33.6359 57.2008 33.7321 57.0253 33.8272C56.8897 33.901 56.7553 33.9765 56.6214 34.0533C56.4482 34.1526 56.2737 34.2488 56.0983 34.3439C55.9626 34.4177 55.8282 34.4932 55.6943 34.57C55.5187 34.6706 55.3418 34.7684 55.1641 34.8649C55.005 34.9514 54.8468 35.0394 54.6889 35.1282C54.5881 35.1849 54.4872 35.2414 54.3862 35.2979C54.3524 35.3168 54.3524 35.3168 54.3179 35.3361C54.1402 35.4356 53.9623 35.5346 53.7843 35.6334C53.612 35.7291 53.44 35.8251 53.2681 35.9214C53.0721 36.0312 52.8759 36.1405 52.6796 36.2495C52.4857 36.3572 52.2921 36.4654 52.0986 36.5738C51.9792 36.6407 51.8598 36.7074 51.7401 36.7738C51.7205 36.7847 51.7205 36.7847 51.7005 36.7958C51.637 36.831 51.5736 36.8662 51.5101 36.9014C51.4873 36.914 51.4646 36.9266 51.4412 36.9396C51.4211 36.9507 51.401 36.9618 51.3804 36.9733C51.3435 36.9942 51.307 37.0159 51.271 37.0384C51.2265 37.0641 51.2265 37.0641 51.187 37.0641C51.1936 37.0969 51.2001 37.1297 51.2068 37.1635C51.2173 37.1605 51.2278 37.1574 51.2386 37.1543C51.4964 37.0794 51.7547 37.007 52.0139 36.937C52.0495 36.9273 52.085 36.9177 52.1206 36.9081C52.1941 36.8882 52.2676 36.8683 52.3411 36.8485C52.4355 36.823 52.5297 36.7975 52.624 36.7719C52.697 36.7521 52.77 36.7324 52.843 36.7127C52.8778 36.7032 52.9126 36.6938 52.9474 36.6844C52.9956 36.6713 53.0439 36.6583 53.0921 36.6453C53.1136 36.6394 53.1136 36.6394 53.1355 36.6335C53.234 36.607 53.234 36.607 53.2779 36.607C53.267 36.7314 53.2384 36.838 53.1953 36.9548C53.1885 36.9735 53.1816 36.9922 53.1746 37.0114C53.0749 37.2777 52.9589 37.5373 52.8432 37.7968C52.8244 37.8389 52.8057 37.881 52.7869 37.9232C52.5986 38.3464 52.3996 38.764 52.1968 39.1803C52.1363 39.3046 52.0769 39.4294 52.018 39.5545C51.8508 39.9085 51.6761 40.2586 51.4931 40.6045C51.4641 40.6595 51.4354 40.7146 51.4067 40.7697C51.2677 41.0365 51.1279 41.3025 50.9775 41.563C50.9668 41.5816 50.956 41.6002 50.945 41.6194C50.9245 41.6545 50.9036 41.6892 50.8822 41.7237C50.8509 41.7738 50.8509 41.7738 50.8257 41.8279C50.7768 41.9177 50.7374 41.964 50.6402 42.0004C50.6112 42.0081 50.5821 42.0155 50.5529 42.0226C50.5372 42.0267 50.5215 42.0308 50.5054 42.035C50.4726 42.0435 50.4398 42.0518 50.407 42.0601C50.3616 42.0715 50.3162 42.0834 50.2709 42.0954C50.1829 42.1189 50.0948 42.1418 50.0067 42.1646C49.9746 42.1729 49.9425 42.1812 49.9105 42.1895C49.8441 42.2067 49.7778 42.2239 49.7114 42.2411C49.6264 42.2631 49.5414 42.2852 49.4563 42.3073C49.3905 42.3244 49.3247 42.3415 49.2588 42.3585C49.2274 42.3666 49.196 42.3748 49.1646 42.383C49.1211 42.3943 49.0776 42.4056 49.034 42.4168C49.0093 42.4232 48.9845 42.4296 48.9591 42.4362C48.8989 42.4499 48.8989 42.4499 48.8397 42.4499C48.8632 42.3299 48.8953 42.2182 48.9396 42.1045C48.9456 42.0888 48.9516 42.0731 48.9578 42.0569C48.9707 42.023 48.9837 41.9891 48.9968 41.9552C49.0323 41.8632 49.0673 41.7711 49.1023 41.6791C49.1097 41.6597 49.1171 41.6403 49.1248 41.6203C49.2068 41.4052 49.2876 41.1896 49.3681 40.9739C49.3841 40.9311 49.4001 40.8883 49.4161 40.8455C49.4386 40.7855 49.4609 40.7256 49.4833 40.6656C49.4934 40.6386 49.4934 40.6386 49.5038 40.611C49.5129 40.5864 49.5129 40.5864 49.5223 40.5612C49.5276 40.5469 49.533 40.5325 49.5385 40.5178C49.5519 40.4823 49.5519 40.4823 49.5499 40.4426C49.5424 40.4513 49.535 40.4601 49.5273 40.469C49.4638 40.5428 49.3994 40.6154 49.3335 40.687C49.2394 40.7892 49.1496 40.8936 49.0628 41.0023C49.0218 41.0531 48.98 41.1031 48.9377 41.1528C48.832 41.2773 48.7311 41.4049 48.633 41.5356C48.5979 41.5823 48.5627 41.6288 48.5275 41.6754C48.514 41.6932 48.5006 41.7109 48.4868 41.7292C48.4591 41.7658 48.4315 41.8023 48.4038 41.8389C48.3456 41.9158 48.2874 41.9928 48.2296 42.07C47.7242 42.7433 47.0992 42.9762 46.3147 43.1869C46.1621 43.2279 46.0095 43.2694 45.857 43.311C45.8326 43.3177 45.8326 43.3177 45.8078 43.3245C45.3846 43.44 44.9627 43.5603 44.5409 43.6808C44.5022 43.6918 44.4636 43.7029 44.4249 43.7139C44.2717 43.7577 44.1184 43.8014 43.9652 43.8452C43.6221 43.9434 43.2788 44.041 42.9355 44.1385C42.8767 44.1552 42.818 44.1718 42.7592 44.1886C42.7313 44.1965 42.7035 44.2044 42.6756 44.2123C42.6622 44.2161 42.6487 44.22 42.6349 44.2239C42.5461 44.2491 42.4573 44.2742 42.3685 44.2992C42.2815 44.3237 42.1947 44.3486 42.108 44.3741C41.9033 44.4335 41.7132 44.4758 41.4995 44.4844C41.4639 44.4865 41.4639 44.4865 41.4276 44.4885C41.3405 44.4934 41.2539 44.4968 41.1666 44.4968C41.1951 44.4086 41.2433 44.3477 41.3035 44.2795C41.3817 44.1886 41.4573 44.0964 41.5303 44.0012C41.6146 43.8918 41.7025 43.7862 41.7925 43.6814C41.8617 43.6008 41.9284 43.5184 41.994 43.4347C42.0513 43.3629 42.1107 43.2928 42.17 43.2226C42.2271 43.1549 42.2834 43.0865 42.339 43.0175C42.4171 42.9208 42.4974 42.8263 42.5781 42.7319C42.6379 42.6619 42.6967 42.5912 42.7545 42.5194C42.8321 42.4231 42.912 42.329 42.9924 42.2351C43.0521 42.165 43.1109 42.0943 43.1687 42.0226C43.2553 41.9153 43.3445 41.8104 43.434 41.7056C43.5572 41.5613 43.6795 41.4163 43.7987 41.2686C43.8768 41.172 43.9571 41.0774 44.0378 40.983C44.0976 40.913 44.1564 40.8423 44.2142 40.7705C44.2918 40.6742 44.3717 40.5801 44.452 40.4862C44.5118 40.4161 44.5706 40.3454 44.6284 40.2737C44.706 40.1774 44.7859 40.0833 44.8663 39.9893C44.926 39.9193 44.9848 39.8486 45.0426 39.7769C45.1292 39.6695 45.2184 39.5647 45.3079 39.4599C45.4311 39.3156 45.5534 39.1706 45.6726 39.0229C45.7507 38.9263 45.831 38.8317 45.9117 38.7373C45.9715 38.6673 46.0303 38.5966 46.0881 38.5248C46.1657 38.4285 46.2456 38.3344 46.3259 38.2405C46.3857 38.1704 46.4445 38.0997 46.5023 38.028C46.5799 37.9317 46.6598 37.8376 46.7402 37.7436C46.7999 37.6736 46.8587 37.6029 46.9165 37.5312C46.9941 37.4349 47.074 37.3408 47.1544 37.2468C47.2142 37.1768 47.273 37.1061 47.3308 37.0343C47.4084 36.938 47.4883 36.8439 47.5686 36.75C47.6284 36.6799 47.6872 36.6092 47.745 36.5375C47.8127 36.4535 47.882 36.371 47.9521 36.2891C48.0373 36.1894 48.1208 36.0886 48.2031 35.9865C48.2627 35.9133 48.3235 35.8412 48.3844 35.769C48.4412 35.7016 48.4972 35.6336 48.5525 35.5649C48.6305 35.4683 48.7108 35.3738 48.7915 35.2794C48.8664 35.1916 48.9394 35.1026 49.0118 35.0127C49.0623 34.9507 49.1137 34.8895 49.1652 34.8284C49.262 34.7136 49.3569 34.5974 49.4512 34.4806C49.5459 34.3633 49.6413 34.2467 49.7385 34.1315C49.8135 34.0426 49.8868 33.9526 49.9588 33.8612C50.0522 33.7437 50.1477 33.6281 50.2428 33.512C50.3032 33.4383 50.3636 33.3645 50.4239 33.2906C50.4356 33.2764 50.4472 33.2622 50.4592 33.2475C50.535 33.1548 50.6105 33.0619 50.6859 32.9689C50.7597 32.8782 50.8338 32.7876 50.9079 32.6971C50.9715 32.6193 51.035 32.5415 51.0983 32.4634C51.1834 32.3585 51.2689 32.2539 51.3544 32.1493C51.4151 32.0751 51.4757 32.0009 51.5361 31.9264C51.6597 31.7742 51.7847 31.6245 51.9169 31.4797C51.9457 31.4474 51.9744 31.4151 52.0032 31.3828C52.0591 31.3199 52.1158 31.2579 52.1731 31.1963C52.2791 31.0816 52.3762 30.962 52.4713 30.8381C52.564 30.7175 52.6603 30.5999 52.7561 30.4818C52.7808 30.4512 52.8051 30.4204 52.8294 30.3894C53.073 30.0809 53.3547 29.7874 53.6527 29.5321C53.681 29.5068 53.681 29.5068 53.71 29.4811C54.2069 29.0403 54.7656 28.6753 55.3536 28.3707C55.5458 28.2709 55.7337 28.1642 55.9212 28.0558C55.9819 28.0208 56.0426 27.9859 56.1034 27.951C56.3334 27.8185 56.5614 27.6832 56.7878 27.5447C56.7992 27.5377 56.8106 27.5308 56.8224 27.5236C56.9702 27.433 57.1169 27.3408 57.2624 27.2466C57.2234 27.2138 57.1843 27.181 57.1441 27.1472C57.1333 27.1513 57.1225 27.1554 57.1114 27.1597C56.7287 27.3052 56.3461 27.4506 55.9634 27.5961C55.9418 27.6044 55.9202 27.6126 55.8979 27.621C55.8548 27.6374 55.8116 27.6538 55.7685 27.6702C55.6615 27.7109 55.5544 27.7516 55.4474 27.7923C55.2434 27.8699 55.0394 27.9474 54.8354 28.0249C54.7393 28.0614 54.6431 28.0979 54.5469 28.1344C54.5012 28.1518 54.4554 28.1692 54.4096 28.1865C54.346 28.2107 54.2825 28.2348 54.219 28.2589C54.2004 28.2659 54.1819 28.273 54.1628 28.2802C54.1364 28.2902 54.1364 28.2902 54.1095 28.3005C54.0927 28.3068 54.0758 28.3132 54.0585 28.3197C54.0232 28.3336 53.9883 28.3483 53.9536 28.3637C53.9362 28.3714 53.9188 28.379 53.9009 28.3869C53.8854 28.394 53.8699 28.4012 53.8539 28.4085C53.8105 28.4191 53.8105 28.4191 53.7679 28.4029C53.7281 28.3771 53.6892 28.3508 53.6508 28.323C53.6352 28.3118 53.6196 28.3006 53.6035 28.2891C53.5868 28.2771 53.5701 28.2651 53.5528 28.2527C52.1185 27.233 50.4567 26.6543 46.5482 25.572C46.4226 25.538 46.297 25.5039 46.1714 25.4698C46.0976 25.4498 46.0237 25.4298 45.9499 25.4099C44.7119 25.0769 43.7337 24.5656 42.9616 23.5104C42.9508 23.4958 42.94 23.4813 42.9289 23.4663C42.781 23.2665 42.6462 23.0623 42.5198 22.8481C42.4842 22.7882 42.4481 22.7285 42.4119 22.6689C42.2626 22.4228 42.1152 22.1756 41.9704 21.9267C41.9599 21.9086 41.9599 21.9086 41.9491 21.8901C41.8708 21.7554 41.7933 21.6203 41.7189 21.4833C41.7629 21.4799 41.8069 21.4766 41.8508 21.4733C41.8753 21.4715 41.8998 21.4697 41.925 21.4678C41.955 21.4662 41.9849 21.4647 42.0148 21.4634C42.0325 21.4625 42.0501 21.4615 42.0683 21.4606C42.2517 21.4553 42.4179 21.4894 42.5948 21.5318C42.626 21.5391 42.6572 21.5463 42.6885 21.5535C42.7536 21.5686 42.8188 21.5839 42.8839 21.5994C42.9772 21.6215 43.0706 21.6432 43.164 21.6648C43.3395 21.7055 43.5149 21.7466 43.6904 21.7879C43.761 21.8045 43.8317 21.8211 43.9024 21.8377C44.353 21.9434 44.8035 22.0495 45.2541 22.1556C45.3028 22.167 45.3515 22.1785 45.4002 22.19C45.6155 22.2407 45.8307 22.2914 46.046 22.3421C46.1352 22.3632 46.2243 22.3842 46.3135 22.4052C46.3552 22.415 46.3969 22.4249 46.4387 22.4347C46.4959 22.4482 46.5531 22.4617 46.6103 22.4752C46.627 22.4791 46.6437 22.4831 46.661 22.4871C46.7775 22.5145 46.8862 22.5394 47.0065 22.5391C47.0267 22.5391 47.0469 22.5392 47.0676 22.5392C47.1164 22.5369 47.1558 22.5294 47.2025 22.5167C47.0794 22.4602 46.9551 22.4085 46.8288 22.3594C46.8009 22.3485 46.8009 22.3485 46.7723 22.3374C46.7111 22.3135 46.6499 22.2896 46.5886 22.2658C46.545 22.2488 46.5013 22.2318 46.4577 22.2148C46.3247 22.163 46.1916 22.1113 46.0585 22.0596C46.0392 22.0521 46.0199 22.0446 46.0001 22.0369C44.812 21.5753 43.6213 21.1186 42.4216 20.6883C41.009 20.1814 41.009 20.1814 40.5551 19.5754C40.5473 19.565 40.5394 19.5546 40.5313 19.5439C40.4283 19.4067 40.3373 19.2662 40.2554 19.1154C40.1833 18.9829 40.1068 18.8532 40.03 18.7233C39.9237 18.5436 39.8189 18.3632 39.7156 18.1818C39.6068 17.9909 39.4955 17.8016 39.3826 17.6131C39.2863 17.4519 39.1918 17.2897 39.0979 17.127C38.9798 16.9224 38.8602 16.7186 38.7404 16.5149C38.7154 16.4723 38.6903 16.4297 38.6653 16.3871C38.6053 16.2851 38.5453 16.1831 38.4852 16.081C38.4394 16.0031 38.3936 15.9252 38.3478 15.8473C38.1913 15.5813 38.0348 15.3153 37.8781 15.0495C37.8063 14.9277 37.7345 14.8059 37.6629 14.6841C37.6235 14.617 37.584 14.5499 37.5446 14.4828C37.5368 14.4696 37.529 14.4564 37.5211 14.4428C37.4042 14.2442 37.2856 14.0467 37.1661 13.8496C37.0536 13.6637 36.9447 13.4757 36.8372 13.2867C36.7433 13.1218 36.647 12.9583 36.5494 12.7956C36.4858 12.6897 36.4229 12.5835 36.3611 12.4766C36.3278 12.4191 36.2945 12.3617 36.2611 12.3043C36.245 12.2765 36.2289 12.2486 36.2129 12.2207C36.1315 12.0786 36.0499 11.9498 35.9376 11.8298C35.8633 11.7412 35.8132 11.6373 35.7594 11.5353C35.7336 11.4872 35.7076 11.4392 35.6816 11.3912C35.6751 11.3791 35.6686 11.3671 35.6619 11.3546C35.5991 11.2383 35.5329 11.124 35.466 11.0099C35.3543 10.8186 35.2465 10.6252 35.1399 10.4308C35.0651 10.2945 34.9895 10.1588 34.9125 10.0237C34.5178 9.33016 34.5178 9.33016 34.3846 9.05106C34.3608 9.00151 34.3368 8.9521 34.3127 8.90271C34.2888 8.85361 34.265 8.80444 34.2412 8.75526C34.2294 8.73073 34.2175 8.70622 34.2055 8.68172C34.1887 8.64725 34.1721 8.6127 34.1555 8.57814C34.1458 8.558 34.136 8.53786 34.126 8.5171C34.105 8.46612 34.105 8.46612 34.105 8.4065ZM71.2674 28.6378C71.2362 28.7005 71.2426 28.7685 71.2405 28.8375C71.2393 28.8706 71.238 28.9037 71.2367 28.9368C71.2347 28.9888 71.2329 29.0408 71.2314 29.0927C71.2249 29.3139 71.2031 29.4883 71.1096 29.6911C71.0775 29.7747 71.0668 29.8349 71.0861 29.9246C71.1576 30.0866 71.2724 30.2383 71.4252 30.327C71.592 30.3862 71.7897 30.3369 71.9577 30.3071C71.9422 29.7107 71.666 29.2433 71.3562 28.7528C71.3433 28.7324 71.3433 28.7324 71.3302 28.7116C71.3064 28.6747 71.3064 28.6747 71.2674 28.6378Z" fill="#FEFEFE"/>
<path d="M84.6145 52.8811C84.6451 52.9091 84.6761 52.9368 84.7074 52.9641C84.7931 53.0389 84.87 53.1157 84.9432 53.203C84.9749 53.2397 85.008 53.2733 85.0428 53.307C85.1235 53.3874 85.1942 53.475 85.2647 53.5645C85.2839 53.5889 85.3032 53.6131 85.3226 53.6374C86.5658 55.192 87.008 57.1776 87.1438 60.8416C87.1452 60.9296 87.1469 61.0177 87.1487 61.1058C87.1659 61.9464 87.1678 62.7871 87.1681 63.6279C87.1682 63.7193 87.1682 63.8107 87.1683 63.9021C87.1684 64.063 87.1685 64.2238 87.1684 64.3847C87.1683 64.4389 87.1683 64.4932 87.1684 64.5474C87.1686 64.8534 87.1642 65.158 87.146 65.4634C86.8785 65.4906 86.6105 65.486 86.342 65.4857C86.2878 65.4857 86.2335 65.4858 86.1793 65.4858C86.0612 65.4859 85.9431 65.4858 85.8249 65.4858C85.6481 65.4857 85.4713 65.4857 85.2945 65.4857C84.9931 65.4858 84.6917 65.4857 84.3903 65.4857C84.085 65.4856 83.7796 65.4855 83.4742 65.4855C83.4549 65.4855 83.4356 65.4855 83.4158 65.4855C83.3174 65.4855 83.219 65.4855 83.1206 65.4856C82.4087 65.4856 81.6968 65.4855 80.9848 65.4854C80.2798 65.4853 79.5748 65.4852 78.8697 65.4852C78.8369 65.4852 78.8369 65.4852 78.8034 65.4852C78.6034 65.4852 78.4034 65.4852 78.2034 65.4852C77.7062 65.4851 77.2091 65.4851 76.7119 65.4851C76.6893 65.4851 76.6667 65.4851 76.6433 65.4851C75.5421 65.485 74.4409 65.4849 73.3397 65.4848C72.9575 65.4847 72.5754 65.4847 72.1932 65.4847C72.1695 65.4847 72.1458 65.4846 72.1214 65.4846C71.0196 65.4845 69.9178 65.4844 68.816 65.4844C68.7444 65.4844 68.6729 65.4844 68.6014 65.4844C68.1273 65.4843 67.6533 65.4843 67.1792 65.4843C66.236 65.4843 65.2928 65.4842 64.3495 65.4841C64.3046 65.4841 64.2597 65.4841 64.2148 65.4841C62.1927 65.484 60.1706 65.4838 58.1484 65.4836C58.1295 65.4836 58.1106 65.4836 58.0911 65.4836C57.1441 65.4835 56.1972 65.4834 55.2502 65.4833C55.2406 65.4233 55.2311 65.3632 55.2215 65.3032C55.2175 65.2779 55.2175 65.2779 55.2133 65.2522C55.1914 65.1138 55.1773 64.976 55.1689 64.8362C55.1673 64.812 55.1658 64.7878 55.1642 64.763C55.1125 63.9008 55.1094 63.0286 55.1701 62.1669C55.1716 62.1457 55.1731 62.1244 55.1746 62.1025C55.1761 62.0824 55.1777 62.0623 55.1793 62.0416C55.1813 62.0159 55.1813 62.0159 55.1833 61.9896C55.1949 61.8949 55.2136 61.8012 55.2305 61.7073C57.2484 61.7073 59.2663 61.7073 61.3454 61.7073C61.3839 59.8876 61.3839 59.8876 61.0309 58.1729C61.0123 58.117 60.9945 58.0609 60.9771 58.0046C60.8319 57.5365 60.5699 57.1638 60.1421 56.9178C60.1219 56.9061 60.1017 56.8945 60.0809 56.8825C59.6366 56.6427 59.1324 56.589 58.6374 56.5499C58.6214 56.5486 58.6054 56.5473 58.5888 56.546C58.2159 56.5167 57.8427 56.5021 57.4689 56.4898C57.4004 56.4875 57.3319 56.485 57.2634 56.4826C56.9768 56.4723 56.6902 56.4625 56.4035 56.4553C56.3868 56.4549 56.3701 56.4544 56.353 56.454C56.2734 56.452 56.1939 56.45 56.1144 56.4483C56.0863 56.4476 56.0582 56.4469 56.0301 56.4462C56.0056 56.4456 55.9811 56.4451 55.9558 56.4445C55.9012 56.4408 55.9012 56.4408 55.8815 56.421C55.8795 56.3724 55.8789 56.3245 55.8791 56.276C55.8791 56.2606 55.8791 56.2453 55.879 56.2294C55.879 56.1776 55.8791 56.1258 55.8792 56.0739C55.8792 56.0369 55.8792 55.9999 55.8792 55.9629C55.8792 55.8621 55.8793 55.7613 55.8795 55.6605C55.8796 55.5553 55.8796 55.45 55.8796 55.3448C55.8797 55.1454 55.8798 54.946 55.88 54.7466C55.8803 54.5197 55.8804 54.2927 55.8805 54.0658C55.8807 53.5988 55.881 53.1318 55.8815 52.6649C57.5515 52.6557 57.5515 52.6557 58.1605 52.705C58.2208 52.7098 58.2812 52.7141 58.3416 52.7185C58.5342 52.7325 58.7267 52.748 58.9191 52.7642C58.9576 52.7675 58.9576 52.7675 58.9968 52.7708C60.6955 52.915 62.2426 53.2735 63.5743 54.4137C63.5956 54.4318 63.617 54.4498 63.6383 54.4678C63.6974 54.518 63.7558 54.5688 63.814 54.6201C63.8384 54.6416 63.8629 54.663 63.8875 54.6843C64.094 54.8639 64.2527 55.0591 64.4028 55.2882C64.413 55.3037 64.4232 55.3192 64.4337 55.3352C65.6909 57.2634 65.7835 59.4009 65.7835 61.6477C67.3848 61.6477 68.9861 61.6477 70.6359 61.6477C70.6359 61.287 70.6359 60.9263 70.6359 60.5547C70.7859 59.5351 71.1271 58.7389 71.8148 57.9803C71.8439 57.948 71.8727 57.9154 71.9012 57.8824C72.7072 56.9549 73.9143 56.4848 75.1136 56.4011C75.2504 56.3946 75.3872 56.3943 75.5241 56.3949C75.5512 56.3949 75.5512 56.3949 75.5788 56.395C75.8549 56.3959 76.1242 56.4066 76.3957 56.4607C76.4135 56.4641 76.4312 56.4675 76.4495 56.471C77.3016 56.6387 78.0766 57.041 78.7163 57.6306C78.7561 57.6669 78.7967 57.7017 78.838 57.7363C79.3515 58.1904 79.7434 58.8231 79.9857 59.4616C79.9912 59.4759 79.9967 59.4903 80.0024 59.505C80.1414 59.8748 80.221 60.2762 80.228 60.6717C80.2283 60.6881 80.2287 60.7045 80.2291 60.7214C80.2302 60.7735 80.2313 60.8255 80.2323 60.8776C80.2379 61.1545 80.2488 61.4305 80.2619 61.7073C81.0755 61.7008 81.8892 61.6942 82.7275 61.6874C82.7369 60.7506 82.7133 59.8327 82.6351 58.9002C82.6295 58.8324 82.6239 58.7647 82.6184 58.697C82.5261 57.5795 82.3663 56.4455 81.5637 55.6061C81.5511 55.5921 81.5384 55.5781 81.5254 55.5637C81.053 55.0558 80.3485 54.837 79.6972 54.687C79.6674 54.68 79.6674 54.68 79.6369 54.6729C79.5693 54.6579 79.5015 54.6448 79.4334 54.6323C79.419 54.6297 79.4045 54.627 79.3897 54.6243C79.0656 54.5668 78.743 54.5641 78.415 54.5662C78.3686 54.5665 78.3222 54.5667 78.2758 54.5668C77.294 54.5696 76.3122 54.5911 75.3306 54.6125C75.3124 54.6129 75.2942 54.6133 75.2755 54.6137C74.3553 54.6337 73.4357 54.667 72.516 54.7028C72.4255 54.7063 72.335 54.7097 72.2445 54.7132C72.1821 54.7156 72.1196 54.7181 72.0572 54.7206C72.0188 54.7221 71.9804 54.7236 71.9421 54.725C71.9254 54.7257 71.9086 54.7264 71.8914 54.7271C71.7557 54.7322 71.62 54.7324 71.4841 54.7317C71.4292 54.3593 71.3745 53.9869 71.3201 53.6144C71.2948 53.4414 71.2694 53.2685 71.2439 53.0956C71.2216 52.945 71.1995 52.7943 71.1776 52.6436C71.166 52.5637 71.1543 52.4839 71.1424 52.4041C71.1313 52.3291 71.1203 52.254 71.1095 52.1789C71.1055 52.1513 71.1014 52.1237 71.0973 52.0961C71.0916 52.0585 71.0862 52.0209 71.0809 51.9833C71.0763 51.9517 71.0762 51.9517 71.0715 51.9195C71.071 51.9031 71.0705 51.8868 71.0699 51.8699C71.1295 51.8098 71.2055 51.8027 71.2854 51.7837C71.3038 51.7792 71.3223 51.7748 71.3413 51.7701C71.4033 51.7551 71.4654 51.7403 71.5275 51.7255C71.56 51.7177 71.56 51.7177 71.5931 51.7098C72.132 51.5806 72.6733 51.4623 73.2148 51.3445C73.3619 51.3125 73.509 51.2803 73.6561 51.2482C73.8115 51.2142 73.967 51.1802 74.1224 51.1465C74.3361 51.1 74.5498 51.0535 74.7631 51.0053C75.0859 50.9325 75.4049 50.8697 75.7349 50.8402C75.7743 50.8364 75.8137 50.8325 75.853 50.8286C75.9501 50.8192 76.0473 50.8102 76.1444 50.8016C76.1955 50.797 76.2465 50.7923 76.2975 50.7875C78.0731 50.6221 79.9101 50.6146 84.6145 52.8811ZM74.3823 59.694C74.0341 60.1138 73.8864 60.562 73.888 61.1057C73.8881 61.1481 73.888 61.1906 73.8879 61.2331C73.8879 61.2607 73.888 61.2883 73.888 61.3159C73.888 61.3405 73.888 61.3651 73.8881 61.3904C73.8911 61.4831 73.9012 61.5753 73.9103 61.6676C74.9193 61.6676 75.9282 61.6676 76.9678 61.6676C77.042 60.9943 76.996 60.3157 76.5671 59.7647C76.2869 59.436 75.9487 59.2337 75.5167 59.1992C75.0864 59.1909 74.6756 59.3789 74.3823 59.694Z" fill="#FEFEFE"/>
<path d="M39.6825 52.641C39.7957 52.6412 39.9089 52.6414 40.0221 52.6415C41.2517 52.6426 42.4813 52.6514 43.7109 52.6649C43.7317 53.4812 43.7369 54.2976 43.7411 55.1142C43.7416 55.2104 43.7421 55.3065 43.7426 55.4027C43.7529 57.3156 43.7527 59.2286 43.7518 61.1416C43.7516 61.4687 43.7515 61.7959 43.7515 62.123C43.7515 62.1465 43.7514 62.17 43.7514 62.1943C43.7514 62.3124 43.7514 62.4305 43.7514 62.5486C43.7512 63.507 43.7508 64.4653 43.7504 65.4237C43.4916 65.554 43.0879 65.4889 42.8041 65.4884C42.726 65.4883 42.648 65.4884 42.57 65.4885C42.4335 65.4887 42.297 65.4887 42.1605 65.4886C41.9576 65.4884 41.7546 65.4885 41.5516 65.4886C41.1889 65.4888 40.8262 65.4888 40.4635 65.4887C40.1458 65.4886 39.8282 65.4886 39.5106 65.4886C39.4789 65.4886 39.4789 65.4886 39.4466 65.4886C39.361 65.4886 39.2753 65.4886 39.1897 65.4887C38.3863 65.4888 37.583 65.4887 36.7797 65.4885C36.0672 65.4883 35.3547 65.4883 34.6422 65.4885C33.8409 65.4887 33.0395 65.4888 32.2381 65.4886C32.1525 65.4886 32.0669 65.4886 31.9813 65.4886C31.9497 65.4886 31.9497 65.4886 31.9175 65.4886C31.6004 65.4886 31.2834 65.4886 30.9663 65.4887C30.6052 65.4888 30.2441 65.4888 29.883 65.4886C29.6814 65.4885 29.4797 65.4885 29.2781 65.4886C29.1428 65.4887 29.0076 65.4886 28.8723 65.4885C28.7956 65.4884 28.7189 65.4883 28.6422 65.4885C28.1019 65.4894 27.5604 65.4722 27.0234 65.4088C27.0092 65.4071 26.995 65.4055 26.9804 65.4038C25.3523 65.2144 23.6367 64.6944 22.3596 63.6212C22.3281 63.5948 22.2964 63.5689 22.2646 63.5429C21.9791 63.3061 21.7029 63.0391 21.4806 62.7407C21.4626 62.7177 21.4446 62.6947 21.4266 62.6716C20.6173 61.6254 20.2383 60.2849 20.2339 58.9686C20.2337 58.9407 20.2336 58.9128 20.2334 58.885C20.2331 58.7961 20.233 58.7071 20.2329 58.6182C20.2329 58.6031 20.2329 58.5879 20.2329 58.5723C20.2328 58.1127 20.2392 57.6566 20.2921 57.1996C20.2973 57.1543 20.3023 57.1089 20.3073 57.0635C20.3809 56.4025 20.4947 55.7485 20.6262 55.0969C20.6299 55.0786 20.6336 55.0603 20.6373 55.0415C20.7759 54.3555 20.7759 54.3555 20.8888 54.2746C21.0538 54.283 21.2159 54.3222 21.3776 54.3547C21.4089 54.361 21.4403 54.3672 21.4716 54.3735C21.5564 54.3904 21.6413 54.4073 21.7261 54.4244C21.8157 54.4423 21.9054 54.4602 21.995 54.478C22.1654 54.512 22.3357 54.5461 22.5061 54.5801C22.7535 54.6296 23.0008 54.679 23.2482 54.7284C23.2853 54.7358 23.3224 54.7432 23.3595 54.7506C23.3777 54.7542 23.3959 54.7579 23.4146 54.7616C23.5203 54.7827 23.6261 54.8038 23.7318 54.825C24.1778 54.9142 24.6241 55.0023 25.0706 55.0894C25.0611 55.2163 25.0513 55.3418 25.0284 55.4671C25.024 55.4917 25.0196 55.5163 25.015 55.5417C25.0115 55.5609 25.0115 55.5609 25.0079 55.5804C25.0004 55.6216 24.9929 55.6628 24.9856 55.704C24.975 55.7628 24.9644 55.8215 24.9538 55.8803C24.8632 56.3827 24.7732 56.8849 24.7199 57.393C24.7154 57.4356 24.7107 57.4782 24.7061 57.5208C24.6673 57.8803 24.6509 58.2379 24.6502 58.5996C24.6501 58.6262 24.6501 58.6262 24.6499 58.6533C24.6493 58.9625 24.6646 59.2708 24.7389 59.5722C24.7431 59.5895 24.7474 59.6068 24.7517 59.6246C24.8406 59.9729 24.9984 60.2787 25.2284 60.5547C25.241 60.5703 25.2537 60.586 25.2667 60.6021C25.7807 61.2107 26.6083 61.4347 27.3587 61.5682C27.3757 61.5713 27.3927 61.5743 27.4102 61.5775C27.689 61.6255 27.9705 61.6367 28.2526 61.6484C28.2729 61.6492 28.2932 61.6501 28.3141 61.651C28.7928 61.6707 29.2715 61.6773 29.7505 61.6812C29.8702 61.6822 29.9898 61.6836 30.1095 61.685C30.2036 61.6861 30.2977 61.6869 30.3918 61.6878C30.436 61.6882 30.4801 61.6886 30.5243 61.6892C30.7743 61.6922 31.0168 61.6854 31.2643 61.6477C31.262 61.6353 31.2597 61.6228 31.2573 61.61C31.0608 60.5428 31.0608 60.5428 31.0165 60.1472C31.0137 60.122 31.0108 60.0968 31.0079 60.0709C30.9757 59.7626 30.9637 59.4558 30.9635 59.1461C30.9635 59.119 30.9635 59.119 30.9634 59.0913C30.9654 57.3901 31.4436 55.6492 32.6562 54.4175C32.7648 54.3089 32.8796 54.2107 33.0001 54.1156C33.0212 54.0984 33.0422 54.0811 33.0632 54.0638C34.5371 52.8583 36.4241 52.7016 39.6825 52.641ZM35.9715 56.9641C35.5498 57.3971 35.4422 58.0049 35.3869 58.5872C35.3847 58.6077 35.3825 58.6283 35.3802 58.6494C35.3134 59.3901 35.3049 60.5471 35.7847 61.1663C35.8279 61.2162 35.8727 61.2633 35.9194 61.3098C35.9318 61.3227 35.9441 61.3356 35.9568 61.3488C36.2164 61.601 36.5927 61.6297 36.9341 61.6601C36.9592 61.6625 36.9844 61.6649 37.0104 61.6674C37.0872 61.6746 37.1641 61.6811 37.241 61.6874C37.2634 61.6894 37.2857 61.6914 37.3087 61.6934C37.5696 61.7135 37.8313 61.711 38.0927 61.711C38.1622 61.711 38.2317 61.7113 38.3011 61.7116C38.3561 61.7118 38.4112 61.7119 38.4662 61.7119C38.5037 61.7119 38.5413 61.7121 38.5788 61.7123C38.8262 61.7117 39.0629 61.6877 39.3122 61.6676C39.3122 59.9493 39.3122 58.231 39.3122 56.4607C37.5931 56.3256 37.5931 56.3256 35.9715 56.9641Z" fill="#FEFEFE"/>
<path d="M47.7352 47.7362C48.2945 47.7334 48.8538 47.7313 49.4131 47.7301C49.6728 47.7294 49.9325 47.7286 50.1921 47.7272C50.4184 47.726 50.6447 47.7253 50.871 47.725C50.9909 47.7249 51.1107 47.7245 51.2306 47.7236C51.3433 47.7228 51.4561 47.7226 51.5688 47.7227C51.6103 47.7227 51.6517 47.7225 51.6932 47.722C51.7496 47.7214 51.8061 47.7216 51.8626 47.7219C51.8791 47.7215 51.8956 47.7212 51.9126 47.7208C51.9584 47.7216 51.9584 47.7216 52.0353 47.7362C52.1328 47.8492 52.1367 47.951 52.1361 48.0945C52.1361 48.1131 52.1361 48.1317 52.1361 48.1509C52.136 48.2136 52.1358 48.2763 52.1357 48.3391C52.1356 48.384 52.1356 48.4289 52.1355 48.4738C52.1355 48.5712 52.1353 48.6685 52.1351 48.7658C52.1348 48.9229 52.1347 49.0801 52.1345 49.2372C52.1345 49.2505 52.1345 49.2638 52.1345 49.2776C52.1345 49.332 52.1344 49.3865 52.1344 49.441C52.1343 49.5246 52.1343 49.6083 52.1342 49.6919C52.1337 50.2637 52.1346 50.8355 52.1359 51.4072C52.136 51.4869 52.1362 51.5665 52.1364 51.6461C52.1369 51.8929 52.1374 52.1396 52.138 52.3864C52.1388 52.7536 52.1396 53.1207 52.1403 53.4879C52.1405 53.5646 52.1406 53.6413 52.1408 53.718C52.141 53.8108 52.1411 53.9037 52.1413 53.9965C52.142 54.3414 52.1427 54.6863 52.1434 55.0311C52.1435 55.0546 52.1435 55.0546 52.1435 55.0785C52.1446 55.5851 52.1457 56.0917 52.1468 56.5983C52.148 57.1274 52.1491 57.6564 52.1501 58.1854C52.1503 58.261 52.1504 58.3367 52.1505 58.4123C52.1506 58.4272 52.1506 58.442 52.1506 58.4574C52.151 58.6753 52.1515 58.8932 52.1521 59.1111C52.1549 60.2726 52.1552 61.4339 52.1452 62.5953C52.145 62.6183 52.1448 62.6413 52.1446 62.6649C52.1365 63.5978 52.1248 64.5306 52.1142 65.4634C50.6756 65.4634 49.2371 65.4634 47.7549 65.4634C47.7427 63.4911 47.7427 63.4911 47.7397 62.8964C47.7396 62.876 47.7395 62.8555 47.7394 62.8345C47.735 61.9501 47.7331 61.0656 47.7329 60.1812C47.7329 60.1637 47.7329 60.1463 47.7329 60.1284C47.7329 59.6964 47.733 59.2644 47.7331 58.8324C47.7332 58.5477 47.7333 58.2631 47.7333 57.9784C47.7333 57.9591 47.7333 57.9397 47.7333 57.9197C47.7333 57.8212 47.7333 57.7227 47.7333 57.6242C47.7334 56.9397 47.7335 56.2553 47.7337 55.5708C47.7339 54.909 47.734 54.2471 47.7341 53.5852C47.7341 53.5646 47.7341 53.5439 47.7341 53.5226C47.7341 53.3149 47.7342 53.1072 47.7342 52.8994C47.7342 52.4769 47.7343 52.0543 47.7344 51.6318C47.7344 51.6027 47.7344 51.6027 47.7344 51.573C47.7345 50.2941 47.7349 49.0152 47.7352 47.7362Z" fill="#FEFEFE"/>
<path d="M58.0319 6.57814C58.0753 6.58493 58.0753 6.58493 58.1305 6.59801C58.1489 6.60163 58.1672 6.60524 58.1862 6.60896C58.279 6.63994 58.3429 6.67359 58.391 6.76005C58.4416 6.87961 58.4761 7.00454 58.5108 7.12954C58.5317 7.20483 58.5537 7.27977 58.576 7.35464C58.5999 7.43518 58.6238 7.51574 58.6473 7.59642C58.7351 7.89708 58.831 8.19494 58.9275 8.49286C58.9466 8.55192 58.9656 8.61101 58.9846 8.6701C59.2747 9.57137 59.5719 10.4704 59.8777 11.3664C59.9179 11.4842 59.9577 11.602 59.9975 11.72C60.1238 12.0944 60.2513 12.4684 60.3812 12.8416C60.499 13.1804 60.6133 13.5203 60.7274 13.8604C60.8349 14.1811 60.9433 14.5014 61.0548 14.8207C61.1882 15.203 61.317 15.5869 61.4456 15.9709C61.4508 15.9863 61.4559 16.0018 61.4613 16.0177C61.4871 16.0948 61.5129 16.1719 61.5387 16.249C61.5462 16.2714 61.5462 16.2714 61.5539 16.2943C61.5639 16.3242 61.5739 16.3542 61.5839 16.3841C61.6651 16.6266 61.7467 16.869 61.829 17.1111C61.8343 17.1267 61.8396 17.1423 61.845 17.1584C61.8661 17.2205 61.8872 17.2826 61.9083 17.3447C61.9766 17.5458 62.0446 17.747 62.1125 17.9483C62.1192 17.9679 62.1258 17.9874 62.1326 18.0076C62.1593 18.0869 62.1861 18.1661 62.2129 18.2454C62.2585 18.3804 62.3041 18.5154 62.3498 18.6505C62.4595 18.9749 62.5691 19.2993 62.6784 19.6239C62.6899 19.6579 62.6899 19.6579 62.7016 19.6927C62.7408 19.8092 62.7801 19.9258 62.8192 20.0423C62.9002 20.283 62.9815 20.5236 63.0634 20.764C63.3476 21.5995 63.3476 21.5995 63.46 21.9851C63.4641 21.999 63.4682 22.013 63.4724 22.0274C63.5352 22.2431 63.5352 22.2431 63.5352 22.3379C63.383 22.2898 63.2376 22.2293 63.0914 22.1652C63.0787 22.1596 63.0659 22.1541 63.0528 22.1483C62.7499 22.0156 62.4533 21.8707 62.1574 21.723C62.1143 21.7015 62.0711 21.6801 62.0279 21.6587C61.7038 21.4976 61.3824 21.3332 61.0663 21.1565C60.9569 21.096 60.8468 21.037 60.7367 20.9778C60.5851 20.8961 60.4336 20.8143 60.2825 20.7317C60.2044 20.689 60.1262 20.6464 60.0481 20.6038C60.0076 20.5816 59.9671 20.5595 59.9267 20.5373C59.5177 20.3125 59.1019 20.1024 58.6848 19.8936C58.5453 19.8238 58.4058 19.7538 58.2664 19.6838C58.2187 19.6599 58.171 19.636 58.1232 19.6121C57.9363 19.5185 57.751 19.4221 57.5665 19.3235C57.4776 19.2761 57.3882 19.2298 57.2986 19.1837C57.2752 19.1717 57.2752 19.1717 57.2514 19.1594C57.2223 19.1445 57.1933 19.1296 57.1642 19.1146C56.9341 18.9962 56.7048 18.8768 56.4788 18.7506C56.3177 18.6611 56.154 18.5768 55.9903 18.4923C55.8083 18.3984 55.6269 18.3039 55.4479 18.2042C55.2389 18.0878 55.0267 17.9781 54.8143 17.8684C54.7868 17.8542 54.7594 17.84 54.7319 17.8258C54.7186 17.8189 54.7054 17.8121 54.6917 17.805C54.5419 17.7275 54.393 17.6483 54.2446 17.5682C54.2567 17.4398 54.2962 17.3256 54.3386 17.2043C54.3461 17.1824 54.3536 17.1605 54.3614 17.138C54.3861 17.0665 54.4109 16.995 54.4357 16.9236C54.4529 16.8738 54.4701 16.824 54.4873 16.7742C54.53 16.6506 54.5728 16.527 54.6157 16.4034C54.6369 16.3425 54.658 16.2816 54.6791 16.2206C54.7355 16.0581 54.7919 15.8956 54.8485 15.7331C54.9199 15.528 54.991 15.3228 55.062 15.1175C55.0744 15.0817 55.0868 15.0458 55.0992 15.01C55.1241 14.9381 55.149 14.8662 55.1739 14.7943C55.2294 14.6337 55.285 14.4732 55.3406 14.3126C55.3714 14.2236 55.4023 14.1346 55.4331 14.0456C55.4454 14.01 55.4577 13.9744 55.4701 13.9388C55.4762 13.9212 55.4823 13.9035 55.4886 13.8854C55.544 13.7252 55.544 13.7252 55.5625 13.6717C55.5748 13.6362 55.5872 13.6006 55.5995 13.565C55.6304 13.4757 55.6613 13.3864 55.6922 13.2971C55.7466 13.14 55.801 12.983 55.8554 12.8259C55.8847 12.741 55.9141 12.6561 55.9435 12.5713C55.9494 12.5541 55.9553 12.537 55.9614 12.5194C56.04 12.2923 56.1188 12.0652 56.1977 11.8382C56.2106 11.8011 56.2106 11.8011 56.2238 11.7633C56.2281 11.7508 56.2324 11.7383 56.2369 11.7255C56.2591 11.6617 56.2813 11.5979 56.3035 11.5341C56.3079 11.5214 56.3123 11.5087 56.3168 11.4956C56.4485 11.1167 56.5797 10.7376 56.7101 10.3583C56.8193 10.0407 56.9292 9.72344 57.0395 9.40628C57.045 9.39031 57.0506 9.37433 57.0563 9.35787C57.0619 9.34189 57.0674 9.32591 57.0732 9.30945C57.1394 9.11908 57.2053 8.92861 57.2712 8.73814C57.2804 8.71153 57.2804 8.71153 57.2898 8.68438C57.3209 8.59456 57.352 8.50474 57.3831 8.41492C57.4202 8.3077 57.4573 8.20048 57.4944 8.09326C57.5006 8.07562 57.5067 8.05797 57.513 8.03978C57.5435 7.95148 57.5741 7.86318 57.6047 7.77489C57.6629 7.60695 57.721 7.43898 57.7788 7.27093C57.8064 7.19093 57.834 7.11095 57.8615 7.03098C57.8748 6.99259 57.888 6.9542 57.9012 6.9158C57.9194 6.8628 57.9376 6.80982 57.9559 6.75685C57.9613 6.74097 57.9668 6.7251 57.9724 6.70874C58.0099 6.60028 58.0099 6.60028 58.0319 6.57814Z" fill="#E9183E"/>
<path d="M71.149 12.5799C71.213 12.639 71.2534 12.698 71.295 12.7744C71.3011 12.7856 71.3073 12.7968 71.3136 12.8084C71.3337 12.8452 71.3536 12.8821 71.3734 12.919C71.3875 12.945 71.4015 12.971 71.4156 12.997C71.4515 13.0636 71.4873 13.1304 71.5229 13.1972C71.5425 13.2338 71.5621 13.2703 71.5817 13.3067C71.8247 13.7592 72.0369 14.224 72.155 14.7263C72.1591 14.7435 72.1632 14.7608 72.1674 14.7786C72.3391 15.5253 72.1196 16.3924 71.7408 17.0515C71.7311 17.0686 71.7311 17.0686 71.7212 17.0861C71.635 17.2378 71.5381 17.376 71.4252 17.5086C71.4045 17.5331 71.4045 17.5331 71.3834 17.558C71.2654 17.6941 71.1363 17.8167 70.999 17.9329C70.8671 18.0458 70.7462 18.1698 70.6242 18.2932C70.5857 18.332 70.5472 18.3707 70.5086 18.4095C70.4837 18.4346 70.4588 18.4597 70.4339 18.4848C70.417 18.5018 70.417 18.5018 70.3997 18.5192C70.342 18.5776 70.2866 18.6372 70.2332 18.6996C70.1615 18.783 70.0856 18.8611 70.0081 18.9389C69.9867 18.9606 69.9867 18.9606 69.9647 18.9827C69.9347 19.013 69.9046 19.0433 69.8745 19.0735C69.8288 19.1195 69.7832 19.1655 69.7376 19.2115C69.7082 19.2412 69.6788 19.2708 69.6494 19.3004C69.636 19.3139 69.6225 19.3275 69.6087 19.3415C69.5317 19.4187 69.4528 19.4924 69.3704 19.5636C69.1636 19.7453 68.9837 19.9494 68.8215 20.1716C68.813 20.183 68.8046 20.1943 68.796 20.206C68.0576 21.2041 67.8039 22.413 67.7895 23.6383C67.7891 23.6682 67.7887 23.698 67.7883 23.7279C67.7872 23.8052 67.7862 23.8826 67.7852 23.9599C67.7842 24.0394 67.7831 24.1188 67.7821 24.1982C67.78 24.3532 67.778 24.5081 67.776 24.6631C67.5611 24.5607 67.3464 24.4581 67.1325 24.3538C67.1084 24.342 67.0842 24.3303 67.0601 24.3185C67.0222 24.3 66.9843 24.2815 66.9464 24.263C66.8668 24.2242 66.7872 24.1856 66.7076 24.1471C65.3547 23.4922 65.3547 23.4922 65.0737 23.2322C65.0562 23.2164 65.0387 23.2005 65.0206 23.1843C64.9187 23.0874 64.8327 22.9874 64.7544 22.8707C64.7435 22.8547 64.7435 22.8547 64.7324 22.8383C64.5872 22.6124 64.4818 22.3639 64.3981 22.1093C64.3883 22.0803 64.3786 22.0512 64.3689 22.0221C64.2208 21.5766 64.0842 21.1271 63.9467 20.6781C63.9008 20.5282 63.8544 20.3785 63.8074 20.229C63.7714 20.1147 63.7359 20.0003 63.7005 19.8858C63.6857 19.8385 63.6709 19.7912 63.6558 19.744C63.4861 19.2099 63.4861 19.2099 63.5351 18.9991C63.5981 18.9225 63.6701 18.8747 63.7521 18.8202C63.7888 18.7878 63.825 18.7547 63.8606 18.7209C63.9483 18.6395 64.039 18.5634 64.1318 18.488C64.1876 18.4413 64.2411 18.3928 64.2945 18.3433C64.3822 18.2619 64.473 18.1858 64.5657 18.1104C64.6216 18.0637 64.6751 18.0152 64.7285 17.9657C64.8162 17.8843 64.9069 17.8082 64.9997 17.7328C65.0555 17.6861 65.109 17.6376 65.1624 17.5881C65.2501 17.5067 65.3409 17.4306 65.4336 17.3552C65.4895 17.3085 65.543 17.26 65.5964 17.2105C65.6841 17.1291 65.7748 17.053 65.8676 16.9776C65.9234 16.9309 65.977 16.8824 66.0303 16.8329C66.1181 16.7515 66.2088 16.6754 66.3016 16.6C66.3574 16.5533 66.4109 16.5048 66.4643 16.4553C66.552 16.3739 66.6427 16.2978 66.7355 16.2224C66.7914 16.1757 66.8449 16.1272 66.8982 16.0777C66.986 15.9963 67.0767 15.9202 67.1695 15.8448C67.2253 15.7981 67.2788 15.7496 67.3322 15.7001C67.4199 15.6187 67.5107 15.5426 67.6034 15.4672C67.6782 15.4047 67.749 15.3384 67.8205 15.2721C67.873 15.2246 67.9269 15.1796 67.9819 15.1349C68.0607 15.0709 68.1359 15.0044 68.21 14.935C68.3009 14.8497 68.395 14.7699 68.4917 14.6914C68.5474 14.645 68.6006 14.5967 68.6538 14.5474C68.7413 14.4662 68.8319 14.3902 68.9245 14.315C69.0017 14.2504 69.0751 14.1822 69.1487 14.1135C69.2341 14.0362 69.2341 14.0362 69.2751 14.0108C69.3507 14.0362 69.3606 14.072 69.3951 14.141C69.4063 14.1642 69.4063 14.1642 69.4178 14.1878C69.4256 14.2035 69.4334 14.2193 69.4414 14.2355C69.4578 14.2689 69.4742 14.3023 69.4905 14.3357C69.5154 14.387 69.5407 14.4382 69.566 14.4893C69.582 14.5217 69.5979 14.5541 69.6138 14.5865C69.6251 14.6095 69.6251 14.6095 69.6367 14.6331C69.6894 14.7415 69.6894 14.7415 69.6894 14.7859C69.7024 14.7859 69.7154 14.7859 69.7288 14.7859C69.7326 14.7556 69.7326 14.7556 69.7365 14.7247C69.756 14.5989 69.7933 14.4782 69.8287 14.3561C69.8326 14.3425 69.8366 14.3288 69.8407 14.3147C70.0239 13.6841 70.2619 13.0673 70.8532 12.7191C70.9497 12.668 71.0489 12.6233 71.149 12.5799Z" fill="#FEFEFE"/>
<path d="M55.9784 39.6495C56.1671 39.7054 56.3052 39.8602 56.3984 40.0283C56.4656 40.1596 56.5121 40.2936 56.5572 40.4339C56.6561 40.7306 56.7733 41.0051 56.9862 41.2376C57.0022 41.2553 57.0181 41.2729 57.0346 41.2911C57.1443 41.4076 57.1443 41.4076 57.2737 41.4989C57.3771 41.5588 57.4626 41.6087 57.5047 41.7251C57.5143 41.8113 57.515 41.8936 57.5127 41.98C57.5128 42.0129 57.5131 42.0458 57.5134 42.0787C57.5141 42.1688 57.513 42.2588 57.5117 42.3488C57.5105 42.4461 57.511 42.5433 57.5112 42.6406C57.5115 42.8309 57.5102 43.0212 57.5085 43.2116C57.5066 43.4333 57.5063 43.6551 57.506 43.8768C57.5055 44.2725 57.5038 44.6682 57.5012 45.0639C57.4988 45.4477 57.497 45.8315 57.496 46.2153C57.4959 46.2508 57.4959 46.2508 57.4958 46.2869C57.4956 46.382 57.4953 46.477 57.4951 46.572C57.4933 47.3005 57.4909 48.029 57.4866 48.7574C57.4862 48.8338 57.4858 48.9102 57.4854 48.9866C57.485 49.0746 57.4845 49.1626 57.4839 49.2505C57.4837 49.2823 57.4835 49.3141 57.4834 49.3459C57.4827 49.5058 57.4803 49.6641 57.4596 49.823C57.3905 49.8509 57.3377 49.8694 57.2624 49.8627C57.1828 49.801 57.1258 49.724 57.0651 49.6441C57.0419 49.617 57.0185 49.59 56.9948 49.5634C56.984 49.5507 56.9731 49.5381 56.9619 49.5252C56.9221 49.4794 56.8814 49.4345 56.8407 49.3895C56.7805 49.3223 56.723 49.2539 56.6669 49.1833C56.5702 49.0627 56.465 48.9509 56.3595 48.8381C56.3015 48.7761 56.2452 48.7128 56.19 48.6482C56.1503 48.602 56.1096 48.5567 56.069 48.5113C55.9743 48.4055 55.8808 48.2989 55.7893 48.1903C55.6789 48.0595 55.5668 47.931 55.4507 47.8054C55.3872 47.7367 55.3251 47.6671 55.2642 47.596C55.2249 47.5507 55.1846 47.5062 55.1444 47.4617C55.0841 47.3946 55.0266 47.3262 54.9705 47.2555C54.8738 47.135 54.7686 47.0231 54.6632 46.9104C54.6052 46.8483 54.5489 46.785 54.4937 46.7204C54.4539 46.6743 54.4133 46.6289 54.3726 46.5836C54.2779 46.4778 54.1844 46.3711 54.0929 46.2626C53.9825 46.1318 53.8705 46.0033 53.7543 45.8777C53.6908 45.809 53.6287 45.7393 53.5678 45.6683C53.5285 45.6229 53.4882 45.5785 53.448 45.534C53.3877 45.4669 53.3302 45.3985 53.2742 45.3278C53.1774 45.2073 53.0723 45.0954 52.9668 44.9827C52.9088 44.9206 52.8525 44.8573 52.7973 44.7927C52.7575 44.7465 52.7169 44.7012 52.6762 44.6558C52.5816 44.55 52.488 44.4434 52.3965 44.3348C52.2862 44.204 52.1741 44.0756 52.058 43.9499C51.9945 43.8813 51.9325 43.8117 51.8716 43.7408C51.8313 43.6942 51.7902 43.6484 51.7491 43.6025C51.5846 43.4186 51.5846 43.4186 51.5223 43.3442C51.5105 43.3316 51.4986 43.3191 51.4864 43.3061C51.4631 43.2647 51.4631 43.2647 51.4732 43.218C51.5093 43.1533 51.5518 43.0954 51.5975 43.0374C51.6101 43.0211 51.6101 43.0211 51.623 43.0044C51.64 42.9825 51.6572 42.9606 51.6745 42.9389C51.6983 42.9089 51.7213 42.8784 51.7442 42.8479C51.8112 42.7676 51.8959 42.7098 51.9797 42.6486C52.0151 42.6223 52.0505 42.5959 52.0859 42.5696C52.1038 42.5563 52.1217 42.543 52.1401 42.5293C52.2211 42.4685 52.3008 42.4059 52.3804 42.343C52.4921 42.255 52.6045 42.1681 52.7182 42.0828C52.8083 42.015 52.8975 41.946 52.9869 41.8773C53.1223 41.7732 53.258 41.6697 53.3944 41.567C53.5028 41.4852 53.6104 41.4024 53.718 41.3196C53.8514 41.2168 53.9856 41.1153 54.1211 41.0152C54.2804 40.8976 54.4375 40.7775 54.594 40.6562C54.8231 40.4789 55.0529 40.3029 55.2859 40.1309C55.4594 40.0026 55.6303 39.8708 55.8011 39.7389C55.8146 39.7285 55.8282 39.718 55.8421 39.7073C55.8625 39.6905 55.8625 39.6905 55.8833 39.6733C55.921 39.6477 55.921 39.6477 55.9784 39.6495Z" fill="#E9193F"/>
<path d="M66.2632 31.5304C66.3528 31.6288 66.411 31.7218 66.4569 31.8469C66.4627 31.8621 66.4684 31.8773 66.4742 31.8929C66.5634 32.1331 66.6441 32.3764 66.7262 32.619C66.765 32.7334 66.8039 32.8477 66.8427 32.962C66.8573 33.0047 66.8718 33.0474 66.8863 33.0901C66.963 33.3158 67.0406 33.5412 67.1189 33.7664C67.229 34.0833 67.3381 34.4005 67.4468 34.7178C67.4547 34.7409 67.4626 34.7639 67.4708 34.7877C67.5027 34.881 67.5347 34.9744 67.5667 35.0677C67.6499 35.3105 67.7333 35.5532 67.8167 35.796C67.8276 35.8277 67.8276 35.8277 67.8387 35.8602C67.8755 35.967 67.9122 36.0739 67.9489 36.1807C68.0154 36.3742 68.0819 36.5677 68.1484 36.7612C68.1704 36.8252 68.1924 36.8893 68.2144 36.9533C68.2832 37.1535 68.3519 37.3537 68.4207 37.5539C68.4528 37.6476 68.485 37.7413 68.5171 37.835C68.5323 37.8792 68.5475 37.9235 68.5627 37.9678C68.5771 38.0095 68.5914 38.0513 68.6057 38.093C68.6193 38.1325 68.6328 38.1719 68.6463 38.2114C68.6768 38.3004 68.7077 38.3892 68.7402 38.4775C68.7487 38.5009 68.7487 38.5009 68.7574 38.5248C68.7679 38.5535 68.7785 38.5821 68.7894 38.6106C68.8314 38.7262 68.8314 38.7262 68.8017 38.7931C68.7672 38.8417 68.7672 38.8417 68.7228 38.895C68.7067 38.9143 68.6907 38.9336 68.6741 38.9535C68.6141 39.0235 68.5526 39.0921 68.4907 39.1606C68.4466 39.2105 68.4046 39.2616 68.3628 39.3136C68.2599 39.4415 68.1525 39.5653 68.0452 39.6895C67.9649 39.7827 67.8855 39.8765 67.8059 39.9703C67.7746 40.007 67.7433 40.0438 67.712 40.0805C67.7015 40.0929 67.6909 40.1053 67.6801 40.118C67.6601 40.1415 67.6401 40.1649 67.6201 40.1884C67.5596 40.2594 67.4999 40.3309 67.4407 40.4029C67.3651 40.3775 67.3534 40.3488 67.3101 40.2823C67.2965 40.2616 67.2829 40.2409 67.2689 40.2195C67.2548 40.1976 67.2407 40.1758 67.2262 40.1532C67.2122 40.1319 67.1982 40.1106 67.1838 40.0886C67.1442 40.0279 67.105 39.9671 67.0659 39.9061C67.0561 39.8908 67.0463 39.8756 67.0361 39.8599C66.9849 39.7792 66.9428 39.6977 66.9031 39.6104C66.8026 39.3996 66.6465 39.2151 66.4236 39.136C66.3041 39.098 66.1968 39.0898 66.0719 39.0991C65.5323 39.1302 65.5323 39.1302 65.3387 38.9608C65.3007 38.925 65.2643 38.8884 65.2284 38.8505C65.1204 38.7393 65.0305 38.6591 64.8716 38.6546C64.8553 38.6548 64.839 38.655 64.8221 38.6553C64.7961 38.6548 64.7961 38.6548 64.7696 38.6544C64.7197 38.6537 64.6699 38.6538 64.62 38.654C64.597 38.6535 64.5741 38.653 64.5505 38.6525C64.4581 38.651 64.3665 38.6535 64.2743 38.6599C63.9442 38.6827 63.6586 38.667 63.3859 38.4559C63.0129 38.1062 62.8289 37.5231 62.8031 37.0237C62.7933 36.7402 62.824 36.4637 62.8586 36.1827C62.8752 36.0476 62.8909 35.9125 62.9063 35.7772C62.9079 35.7633 62.9095 35.7493 62.9111 35.7349C62.9354 35.5202 62.9552 35.3054 62.9717 35.0899C62.9727 35.0758 62.9738 35.0617 62.9749 35.0471C62.9862 34.898 62.9968 34.7488 63.0069 34.5995C63.0239 34.3555 63.0451 34.1132 63.0793 33.8709C63.0822 33.8495 63.0851 33.828 63.0882 33.8058C63.1388 33.469 63.2953 33.1881 63.5706 32.9835C63.675 32.9096 63.7826 32.8406 63.8901 32.7715C63.9235 32.7497 63.9569 32.728 63.9902 32.7062C64.4143 32.4309 64.848 32.1707 65.2825 31.9124C65.3984 31.8434 65.5141 31.7742 65.6283 31.7023C65.655 31.6856 65.655 31.6856 65.6822 31.6686C65.7138 31.6488 65.7453 31.6287 65.7766 31.6084C65.9038 31.529 66.1263 31.4376 66.2632 31.5304Z" fill="#E9193E"/>
<path d="M58.8998 40.5023C58.9671 40.5418 59.02 40.5795 59.0737 40.6364C59.1371 40.702 59.2025 40.763 59.2714 40.8227C59.3525 40.8935 59.4317 40.9664 59.5113 41.0388C59.4741 41.2446 59.4153 41.4319 59.3412 41.6264C59.3263 41.666 59.3114 41.7056 59.2966 41.7453C59.2833 41.7808 59.2698 41.8162 59.2564 41.8517C59.1863 42.0552 59.188 42.2709 59.28 42.4662C59.5984 43.057 60.0883 43.628 60.7429 43.8398C61.0138 43.9039 61.276 43.8615 61.5147 43.7205C61.5722 43.6837 61.627 43.6442 61.6811 43.6025C61.6564 43.4263 61.618 43.254 61.5778 43.0807C61.5024 42.7539 61.4561 42.3699 61.6283 42.0661C61.6565 42.025 61.6864 41.9893 61.7206 41.953C61.7317 41.9408 61.7428 41.9286 61.7542 41.916C61.9259 41.746 62.1608 41.6928 62.3947 41.6915C62.4152 41.6913 62.4152 41.6913 62.4361 41.6912C62.4809 41.6909 62.5258 41.6907 62.5707 41.6906C62.5861 41.6906 62.6016 41.6905 62.6175 41.6905C62.6994 41.6902 62.7813 41.69 62.8632 41.6899C62.9471 41.6898 63.031 41.6893 63.1149 41.6887C63.18 41.6884 63.2451 41.6883 63.3102 41.6882C63.3411 41.6882 63.372 41.688 63.4029 41.6878C63.5909 41.6863 63.7684 41.6965 63.9495 41.7543C63.9905 41.7956 63.9799 41.8807 63.9841 41.9378C63.9854 41.9543 63.9867 41.9708 63.988 41.9878C63.9907 42.0228 63.9934 42.0578 63.996 42.0929C64 42.1463 64.0042 42.1997 64.0083 42.2531C64.011 42.2871 64.0136 42.3212 64.0162 42.3552C64.0174 42.3711 64.0186 42.387 64.0199 42.4035C64.0255 42.4788 64.0299 42.5532 64.0284 42.6287C64.0391 42.6315 64.0498 42.6343 64.0608 42.6371C64.2242 42.6828 64.3768 42.7512 64.5314 42.82C64.5587 42.832 64.586 42.844 64.6132 42.856C64.8061 42.941 64.8061 42.941 64.8569 42.9666C64.7175 43.3513 64.4519 43.6566 64.1764 43.9484C64.1298 43.9982 64.0853 44.0497 64.041 44.1016C64.0012 44.1478 63.9606 44.1931 63.9199 44.2385C63.8669 44.2977 63.8141 44.3572 63.7621 44.4173C63.6952 44.4948 63.627 44.5709 63.5587 44.6471C63.521 44.6895 63.4836 44.7321 63.4465 44.7751C63.3796 44.8525 63.3113 44.9287 63.243 45.0049C63.2057 45.0468 63.1688 45.0891 63.1321 45.1315C63.0601 45.2149 62.9861 45.2964 62.9122 45.378C62.8613 45.4346 62.8113 45.492 62.7616 45.5496C62.7058 45.6138 62.6488 45.6769 62.5921 45.7403C62.5548 45.7822 62.5179 45.8244 62.4812 45.8669C62.4092 45.9502 62.3351 46.0317 62.2612 46.1133C62.2103 46.17 62.1603 46.2274 62.1105 46.2851C62.0255 46.3828 61.9386 46.4788 61.8522 46.5752C61.7852 46.65 61.7184 46.7249 61.6528 46.8009C61.5807 46.8843 61.5067 46.9657 61.4328 47.0474C61.3818 47.1041 61.3318 47.1614 61.2821 47.2191C61.1971 47.3168 61.1101 47.4128 61.0237 47.5092C60.9567 47.5841 60.8899 47.659 60.8243 47.735C60.7522 47.8184 60.6782 47.8999 60.6042 47.9815C60.5649 48.0253 60.5261 48.0693 60.4877 48.1138C60.4161 48.1968 60.3425 48.2779 60.2689 48.3591C60.2296 48.4029 60.1908 48.4469 60.1524 48.4914C60.0808 48.5744 60.0071 48.6555 59.9336 48.7367C59.8943 48.7804 59.8555 48.8245 59.8171 48.869C59.7621 48.9328 59.7059 48.9954 59.6494 49.0578C59.5812 49.1331 59.514 49.2091 59.4476 49.286C59.3928 49.349 59.3371 49.4111 59.2814 49.4732C59.2497 49.5086 59.2181 49.5441 59.1865 49.5796C59.1708 49.5972 59.1552 49.6148 59.139 49.6329C59.1177 49.6568 59.1177 49.6568 59.096 49.6813C59.0643 49.7162 59.0321 49.7501 58.9985 49.7832C58.8742 49.5189 58.8912 49.1702 58.8927 48.8836C58.8927 48.8471 58.8927 48.8106 58.8926 48.774C58.8924 48.6751 58.8927 48.5761 58.893 48.4771C58.8932 48.3698 58.8931 48.2626 58.8931 48.1554C58.8931 47.97 58.8933 47.7846 58.8936 47.5993C58.8941 47.3313 58.8942 47.0633 58.8943 46.7953C58.8944 46.3603 58.8948 45.9254 58.8954 45.4905C58.8959 45.0683 58.8963 44.646 58.8966 44.2238C58.8966 44.1977 58.8966 44.1717 58.8966 44.1448C58.8967 44.014 58.8968 43.8832 58.8969 43.7524C58.8975 42.669 58.8985 41.5857 58.8998 40.5023Z" fill="#E91A3F"/>
<path d="M38.9598 46.9399C39.0976 46.9401 39.2355 46.9402 39.3733 46.9403C39.6555 46.9405 39.9378 46.9408 40.22 46.9413C40.2736 47.2778 40.2646 47.6176 40.2635 47.9573C40.2632 48.0427 40.2632 48.1281 40.2632 48.2134C40.263 48.3745 40.2627 48.5356 40.2623 48.6967C40.2619 48.8804 40.2617 49.064 40.2615 49.2477C40.2611 49.6249 40.2604 50.0022 40.2595 50.3794C40.1851 50.3922 40.1124 50.4027 40.0371 50.4073C40.0169 50.4086 39.9968 50.4098 39.976 50.4111C39.9541 50.4124 39.9323 50.4137 39.9097 50.415C39.8747 50.417 39.8747 50.417 39.8389 50.4191C39.7609 50.4234 39.6829 50.4276 39.6049 50.4316C39.5913 50.4323 39.5778 50.433 39.5639 50.4337C38.9232 50.4662 38.2844 50.4579 37.6433 50.4438C37.4685 50.4399 37.2937 50.4369 37.1189 50.4343C37.0516 50.4334 36.9843 50.4324 36.9169 50.4314C36.8419 50.4302 36.7668 50.4291 36.6918 50.428C36.4405 50.4243 36.1902 50.4189 35.9397 50.3993C35.8851 50.208 35.8498 50.0208 35.8275 49.8229C35.8251 49.8022 35.8228 49.7815 35.8204 49.7602C35.8134 49.695 35.8073 49.6299 35.8016 49.5646C35.7987 49.5326 35.7987 49.5326 35.7957 49.4999C35.7754 49.2335 35.7782 48.9661 35.7782 48.6991C35.7782 48.6422 35.7781 48.5852 35.7778 48.5283C35.7719 47.2595 35.7719 47.2595 35.9002 47.0009C36.0471 46.996 36.1939 46.9912 36.3408 46.9864C36.409 46.9841 36.4773 46.9819 36.5456 46.9796C36.6957 46.9747 36.8458 46.9698 36.9959 46.9652C37.0785 46.9626 37.161 46.9598 37.2436 46.9569C37.8155 46.9366 38.3876 46.9389 38.9598 46.9399Z" fill="#FEFEFE"/>
<path d="M36.0774 73.3731C36.2727 73.3731 36.468 73.3731 36.6692 73.3731C36.6757 73.8781 36.6822 74.3831 36.6889 74.9033C36.7573 74.8246 36.7573 74.8246 36.827 74.7444C37.0528 74.493 37.3555 74.3041 37.6984 74.2849C38.0201 74.2719 38.3197 74.2939 38.5765 74.5111C38.8442 74.7675 38.9052 75.0328 38.9573 75.4002C38.9573 75.5969 38.9573 75.7937 38.9573 75.9964C39.6343 75.9964 40.3113 75.9964 41.0088 75.9964C41.0389 75.4736 41.0389 75.4736 40.8432 74.9743C40.6315 74.7989 40.3072 74.8269 40.0505 74.8479C39.9734 74.8555 39.8966 74.8647 39.8198 74.8748C39.7611 74.8817 39.7066 74.8842 39.6477 74.8835C39.6378 74.8156 39.6279 74.7477 39.6181 74.6798C39.6153 74.6605 39.6125 74.6413 39.6096 74.6215C39.6069 74.6029 39.6042 74.5843 39.6015 74.5652C39.599 74.5481 39.5965 74.531 39.594 74.5135C39.5885 74.4661 39.5885 74.4661 39.5885 74.3866C39.651 74.3737 39.7135 74.3609 39.7759 74.3481C39.7934 74.3445 39.8109 74.3409 39.8289 74.3371C40.2769 74.2459 40.7614 74.2366 41.1648 74.481C41.3888 74.635 41.5274 74.8312 41.592 75.0956C41.6072 75.1782 41.6053 75.2605 41.6044 75.3443C41.6043 75.3609 41.6043 75.3776 41.6042 75.3947C41.604 75.4562 41.6035 75.5176 41.603 75.579C41.6022 75.7168 41.6014 75.8545 41.6005 75.9964C41.9781 75.9964 42.3556 75.9964 42.7446 75.9964C42.7446 75.4324 42.7446 74.8684 42.7446 74.2873C42.9464 74.2873 43.1482 74.2873 43.3561 74.2873C43.3561 75.0283 43.3561 75.7694 43.3561 76.533C40.863 76.533 38.3699 76.533 35.8013 76.533C35.8013 76.6117 35.8013 76.6904 35.8013 76.7715C35.7537 77.0361 35.616 77.2613 35.4068 77.4273C35.0931 77.6252 34.7871 77.6491 34.4246 77.6492C34.3924 77.6493 34.3601 77.6494 34.3278 77.6494C34.2604 77.6495 34.193 77.6496 34.1256 77.6496C34.0399 77.6496 33.9543 77.6498 33.8686 77.6502C33.802 77.6504 33.7354 77.6504 33.6688 77.6504C33.6373 77.6505 33.6057 77.6505 33.5742 77.6507C33.101 77.6528 32.6553 77.5735 32.3048 77.2272C32.1122 77.0264 32.0302 76.7877 32.0313 76.5114C32.0362 76.3966 32.0512 76.2826 32.0653 76.1685C32.0707 76.1244 32.076 76.0802 32.0812 76.036C32.0846 76.0075 32.0881 75.9789 32.0916 75.9503C32.0947 75.9248 32.0978 75.8993 32.1009 75.8731C32.1132 75.794 32.1329 75.7163 32.1521 75.6387C32.3474 75.6649 32.5427 75.6911 32.7439 75.7182C32.7292 75.9104 32.71 76.0995 32.6833 76.2901C32.6589 76.4802 32.6481 76.6633 32.7524 76.8311C32.8853 77.002 33.0896 77.064 33.2962 77.0894C33.3443 77.0914 33.3925 77.0924 33.4406 77.0926C33.4543 77.0927 33.468 77.0928 33.4822 77.0929C33.5271 77.0932 33.5721 77.0934 33.617 77.0935C33.6403 77.0935 33.6403 77.0935 33.664 77.0936C33.7459 77.0939 33.8279 77.0941 33.9099 77.0942C33.994 77.0943 34.0781 77.0948 34.1622 77.0954C34.2274 77.0957 34.2926 77.0958 34.3578 77.0959C34.3888 77.0959 34.4198 77.0961 34.4507 77.0963C34.7928 77.0992 34.7928 77.0992 35.0796 76.9294C35.1522 76.8397 35.1695 76.7385 35.1912 76.6271C35.1964 76.6006 35.1964 76.6006 35.2017 76.5735C35.2056 76.5534 35.2056 76.5534 35.2095 76.533C35.1929 76.5334 35.1929 76.5334 35.1759 76.5339C34.8436 76.542 34.5786 76.523 34.2824 76.3541C34.2824 76.2692 34.2855 76.2609 34.3358 76.2001C34.347 76.1864 34.3582 76.1726 34.3697 76.1585C34.3816 76.1443 34.3935 76.1302 34.4057 76.1156C34.4173 76.1015 34.4289 76.0873 34.4408 76.0728C34.4971 76.0045 34.5538 75.9384 34.6178 75.8771C34.6512 75.8972 34.6846 75.9173 34.7179 75.9373C35.1227 76.1437 35.6239 75.9891 36.0774 75.9964C36.0774 75.1307 36.0774 74.265 36.0774 73.3731ZM37.0045 75.2014C36.9846 75.217 36.9647 75.2326 36.9441 75.2486C36.8693 75.316 36.8095 75.3923 36.7472 75.4712C36.7087 75.5194 36.7087 75.5194 36.6692 75.5592C36.6692 75.7034 36.6692 75.8477 36.6692 75.9964C37.2225 75.9964 37.7758 75.9964 38.3459 75.9964C38.3848 75.4578 38.3848 75.4578 38.188 74.963C38.052 74.8347 37.9011 74.8153 37.7198 74.819C37.4354 74.8403 37.2041 75.0085 37.0045 75.2014Z" fill="#FDFDFD"/>
<path d="M52.4693 74.2873C53.4549 74.2698 53.4549 74.2698 53.8284 74.6205C54.1708 74.9784 54.1262 75.5456 54.1262 75.9964C54.5038 75.9964 54.8813 75.9964 55.2703 75.9964C55.2703 75.4324 55.2703 74.8684 55.2703 74.2873C55.4656 74.2873 55.6609 74.2873 55.8621 74.2873C55.8621 74.8513 55.8621 75.4153 55.8621 75.9964C56.0443 75.9964 56.2266 75.9964 56.4144 75.9964C56.4144 75.4324 56.4144 74.8684 56.4144 74.2873C56.6162 74.2873 56.818 74.2873 57.0259 74.2873C57.0324 74.4906 57.0389 74.6939 57.0456 74.9033C57.0773 74.8677 57.1091 74.832 57.1417 74.7953C57.408 74.5025 57.6856 74.3 58.0923 74.2818C58.4126 74.2733 58.6935 74.3144 58.9441 74.5307C59.2059 74.7812 59.279 75.0879 59.314 75.4399C59.314 75.8006 59.314 76.1613 59.314 76.533C57.0032 76.533 54.6924 76.533 52.3115 76.533C52.3115 76.3559 52.3115 76.1788 52.3115 75.9964C52.7086 75.9964 53.1057 75.9964 53.5148 75.9964C53.5286 75.4359 53.5286 75.4359 53.3052 74.9443C53.1298 74.8363 52.9323 74.8338 52.7319 74.8301C52.6453 74.828 52.5586 74.826 52.4693 74.8239C52.4693 74.6468 52.4693 74.4697 52.4693 74.2873ZM57.2216 75.3198C57.1837 75.3604 57.1837 75.3604 57.1389 75.3992C57.084 75.4494 57.084 75.4494 57.0259 75.5592C57.0259 75.7035 57.0259 75.8477 57.0259 75.9964C57.5792 75.9964 58.1324 75.9964 58.7025 75.9964C58.7396 75.4523 58.7396 75.4523 58.5348 74.9667C58.5186 74.9523 58.5023 74.938 58.4855 74.9232C58.4733 74.9122 58.4611 74.9011 58.4485 74.8897C58.0251 74.6262 57.502 75.0175 57.2216 75.3198Z" fill="#FDFDFD"/>
<path d="M50.674 27.8031C50.7627 27.8308 50.8454 27.8662 50.9286 27.9073C50.9417 27.9137 50.9549 27.9202 50.9684 27.9268C51.0117 27.948 51.0549 27.9693 51.0981 27.9906C51.1287 28.0057 51.1593 28.0207 51.1899 28.0357C51.4342 28.1558 51.6773 28.2782 51.9202 28.4011C52.1281 28.5063 52.3365 28.6103 52.5473 28.7096C52.6553 28.7608 52.7599 28.8165 52.8635 28.8762C52.8291 28.9487 52.7868 29.0077 52.7378 29.0712C52.7291 29.0825 52.7205 29.0937 52.7116 29.1053C52.6552 29.1783 52.598 29.2505 52.5404 29.3225C52.3563 29.553 52.181 29.7888 52.0129 30.0314C52.0012 30.0483 51.9895 30.0652 51.9774 30.0826C51.9261 30.1568 51.8749 30.231 51.8243 30.3057C51.6689 30.5324 51.4844 30.7247 51.2901 30.9179C51.2385 30.9707 51.1908 31.026 51.1431 31.0823C51.1034 31.1271 51.0617 31.1692 51.0192 31.2114C50.9532 31.2772 50.891 31.3447 50.8306 31.4157C50.7927 31.4595 50.7537 31.5022 50.7145 31.5448C50.6207 31.6466 50.5314 31.7507 50.4448 31.859C50.3908 31.9256 50.3353 31.9909 50.2795 32.056C50.2094 32.138 50.1401 32.2204 50.0724 32.3044C49.9949 32.4007 49.915 32.4948 49.8346 32.5887C49.7738 32.6599 49.7143 32.7319 49.6557 32.805C49.5797 32.8993 49.4997 32.9892 49.4181 33.0786C49.3799 33.1206 49.3425 33.1631 49.3056 33.2062C49.1011 33.4423 48.8832 33.6641 48.6621 33.8844C48.5671 33.5568 48.7784 33.1406 48.8911 32.837C48.9168 32.7674 48.9421 32.6977 48.9674 32.6279C49.0143 32.4988 49.0616 32.3698 49.1091 32.2408C49.1618 32.0978 49.214 31.9546 49.2662 31.8113C49.3348 31.6233 49.4035 31.4354 49.4723 31.2475C49.4805 31.2253 49.4886 31.2031 49.497 31.1803C49.537 31.0711 49.5771 30.9619 49.6174 30.8528C49.6551 30.7507 49.6925 30.6486 49.7299 30.5464C49.7435 30.5093 49.7572 30.4722 49.7709 30.4352C49.7897 30.3846 49.8082 30.3339 49.8267 30.2831C49.8321 30.2689 49.8375 30.2546 49.843 30.2398C49.8726 30.1577 49.8907 30.079 49.9035 29.9925C49.9224 29.8692 49.9587 29.7582 50.0021 29.6418C50.0099 29.6204 50.0176 29.5991 50.0256 29.5772C50.0509 29.5078 50.0764 29.4386 50.102 29.3694C50.1196 29.3211 50.1373 29.2729 50.1548 29.2246C50.1911 29.1252 50.2276 29.0258 50.2641 28.9264C50.3177 28.7805 50.3709 28.6345 50.4241 28.4884C50.5072 28.2599 50.5906 28.0315 50.674 27.8031Z" fill="#E91A40"/>
<path d="M59.5504 38.7534C59.7658 38.914 59.9747 39.0827 60.1822 39.2533C60.2796 39.3333 60.3781 39.4118 60.4774 39.4895C60.5314 39.532 60.5846 39.575 60.6363 39.6204C60.9494 39.8941 61.2795 40.0483 61.7005 40.0253C61.7863 40.012 61.87 39.992 61.9545 39.9719C62.2322 39.9106 62.5113 39.8777 62.794 39.8489C62.8151 39.8468 62.8361 39.8446 62.8578 39.8424C62.9182 39.8362 62.9788 39.8302 63.0393 39.8242C63.0574 39.8224 63.0755 39.8206 63.0942 39.8188C63.1112 39.8172 63.1283 39.8156 63.1459 39.8139C63.1606 39.8125 63.1753 39.8111 63.1905 39.8097C63.2526 39.8059 63.3149 39.8067 63.3771 39.8067C63.3967 40.0231 63.3967 40.0231 63.4166 40.2439C63.4589 40.2537 63.5012 40.2636 63.5448 40.2737C64.477 40.5034 64.477 40.5034 64.6869 40.8224C64.8067 41.0501 64.758 41.296 64.6987 41.5357C64.6864 41.5691 64.6735 41.6024 64.6593 41.635C64.3005 41.5299 63.965 41.1262 63.7375 40.837C63.6759 40.7592 63.6116 40.6837 63.5473 40.6081C63.5073 40.5608 63.4706 40.5143 63.4363 40.4625C63.4298 40.6199 63.4233 40.7773 63.4166 40.9395C63.1966 40.9682 62.9767 40.9923 62.7557 41.0128C62.7238 41.0158 62.6918 41.0189 62.6599 41.0219C62.5768 41.0297 62.4938 41.0375 62.4107 41.0453C62.2772 41.0578 62.1437 41.0703 62.0102 41.0829C61.964 41.0873 61.9177 41.0916 61.8714 41.0959C61.8429 41.0986 61.8145 41.1013 61.786 41.1039C61.7613 41.1062 61.7366 41.1086 61.7112 41.1109C61.5707 41.1177 61.5707 41.1177 61.4542 41.1841C61.4395 41.2046 61.4247 41.2251 61.4096 41.2463C61.4013 41.2577 61.3931 41.2691 61.3846 41.2809C61.3577 41.319 61.3317 41.3576 61.306 41.3966C61.2971 41.4099 61.2883 41.4233 61.2791 41.4371C60.9875 41.8842 60.7931 42.3649 60.6866 42.8885C60.6829 42.9059 60.6793 42.9234 60.6756 42.9413C60.6711 42.9645 60.6711 42.9645 60.6664 42.9882C60.6551 43.0262 60.6551 43.0262 60.6156 43.0659C60.5008 42.9411 60.3906 42.8145 60.2845 42.6821C60.2417 42.6298 60.1974 42.5795 60.1521 42.5294C60.0882 42.4584 60.0257 42.3866 59.9647 42.3132C59.95 42.2957 59.9354 42.2781 59.9203 42.26C59.8867 42.2127 59.8745 42.1881 59.8661 42.1319C59.8841 42.0765 59.9035 42.0248 59.9262 41.9713C59.9327 41.9555 59.9392 41.9397 59.946 41.9234C59.9599 41.8895 59.974 41.8556 59.9882 41.8218C60.0103 41.7691 60.0321 41.7163 60.0539 41.6635C60.1175 41.5093 60.182 41.3555 60.248 41.2023C60.2574 41.1803 60.2667 41.1584 60.2764 41.1358C60.2934 41.0961 60.3106 41.0565 60.3282 41.0171C60.3356 40.9998 60.3431 40.9825 60.3507 40.9647C60.3572 40.9501 60.3636 40.9354 60.3703 40.9204C60.3826 40.8794 60.3826 40.8794 60.3651 40.839C60.3378 40.7979 60.3095 40.7672 60.2735 40.7337C60.2604 40.7214 60.2473 40.7091 60.2338 40.6965C60.2199 40.6836 60.2059 40.6708 60.1915 40.6575C60.1772 40.6441 60.1628 40.6308 60.148 40.617C60.0589 40.534 59.9689 40.4519 59.8783 40.3705C59.811 40.3092 59.7449 40.2468 59.6787 40.1843C59.5822 40.0932 59.4849 40.0032 59.3863 39.9145C59.3036 39.8391 59.2225 39.762 59.1414 39.6849C59.076 39.623 59.0101 39.5639 58.939 39.5086C58.9563 39.419 59.0072 39.3653 59.0659 39.2987C59.0766 39.2864 59.0872 39.2741 59.0981 39.2615C59.1802 39.1671 59.2638 39.0741 59.348 38.9816C59.4014 38.9226 59.4536 38.8626 59.5055 38.8023C59.52 38.7856 59.5349 38.7691 59.5504 38.7534Z" fill="#FEFEFE"/>
<path d="M74.8956 74.3307C75.1759 74.5775 75.2991 74.9187 75.3505 75.2809C75.3505 75.6941 75.3505 76.1073 75.3505 76.533C73.5344 76.533 71.7183 76.533 69.8472 76.533C69.8472 76.3559 69.8472 76.1788 69.8472 75.9964C70.2377 75.9964 70.6283 75.9964 71.0307 75.9964C71.0291 75.8902 71.0274 75.7841 71.0258 75.6747C71.0253 75.6253 71.0253 75.6253 71.0248 75.5749C71.0213 75.3754 71.0088 75.1595 70.8889 74.9915C70.7542 74.8739 70.6011 74.8431 70.4268 74.8374C70.4022 74.8366 70.3776 74.8358 70.3523 74.8349C70.3268 74.8341 70.3012 74.8334 70.275 74.8325C70.2491 74.8317 70.2232 74.8308 70.1965 74.8299C70.1326 74.8278 70.0688 74.8258 70.005 74.8239C70.005 74.6468 70.005 74.4697 70.005 74.2873C70.9659 74.2702 70.9659 74.2702 71.3006 74.5598C71.5368 74.7946 71.6415 75.099 71.6459 75.4289C71.6461 75.5067 71.6454 75.5844 71.6446 75.6623C71.6438 75.7725 71.643 75.8828 71.6422 75.9964C71.9416 75.9964 72.241 75.9964 72.5495 75.9964C72.5495 75.8783 72.5495 75.7603 72.5495 75.6387C72.6107 75.4087 72.7249 75.2155 72.9326 75.094C73.1676 74.9706 73.4292 74.9365 73.685 75.0151C73.894 75.0976 74.0799 75.2684 74.1721 75.4768C74.2313 75.6491 74.2262 75.8128 74.2262 75.9964C74.3954 75.9964 74.5647 75.9964 74.739 75.9964C74.7376 75.9052 74.7359 75.8141 74.7339 75.723C74.7332 75.6921 74.7327 75.6612 74.7322 75.6304C74.7276 75.3271 74.7112 75.0053 74.4999 74.768C74.2856 74.5694 73.9982 74.5586 73.7232 74.5605C73.71 74.5606 73.6967 74.5606 73.6831 74.5606C73.4526 74.5613 73.2244 74.5752 72.9948 74.5965C72.8922 74.6057 72.7906 74.6073 72.6876 74.6052C72.6776 74.5543 72.6678 74.5034 72.658 74.4525C72.6552 74.4381 72.6524 74.4238 72.6495 74.409C72.6468 74.395 72.6441 74.381 72.6414 74.3665C72.6389 74.3537 72.6364 74.3409 72.6339 74.3277C72.6276 74.2808 72.6276 74.2352 72.6284 74.1879C73.3788 73.9955 74.2293 73.8235 74.8956 74.3307ZM73.1656 75.4913C73.0223 75.6521 73.0427 75.7608 73.0427 75.9964C73.2705 75.9964 73.4983 75.9964 73.733 75.9964C73.7409 75.7024 73.7409 75.7024 73.595 75.4797C73.4582 75.3754 73.2937 75.3756 73.1656 75.4913Z" fill="#FDFDFD"/>
<path d="M62.2727 33.7055C62.297 35.6089 62.297 35.6089 62.1762 36.3135C62.1586 36.4165 62.1456 36.519 62.1361 36.623C62.1342 36.6434 62.1342 36.6434 62.1323 36.6643C62.1268 36.7249 62.1218 36.7856 62.1171 36.8463C62.0929 37.1176 62.0004 37.3774 61.7933 37.5617C61.7765 37.575 61.7598 37.5883 61.7426 37.602C61.6548 37.6728 61.5688 37.7453 61.4837 37.8193C61.3669 37.9207 61.2483 38.0196 61.1286 38.1174C61.0924 38.1472 61.0563 38.177 61.0201 38.2069C60.8031 38.3857 60.8031 38.3857 60.749 38.4303C60.7123 38.4606 60.6757 38.4909 60.639 38.5213C60.3106 38.7931 60.3106 38.7931 60.2804 38.7931C60.2749 38.315 60.2707 37.8368 60.2682 37.3586C60.2669 37.1365 60.2653 36.9145 60.2626 36.6924C60.2602 36.4989 60.2587 36.3053 60.2581 36.1117C60.2578 36.0092 60.2571 35.9068 60.2554 35.8043C60.2538 35.7078 60.2533 35.6113 60.2536 35.5147C60.2536 35.4794 60.2531 35.444 60.2522 35.4087C60.2453 35.1291 60.2453 35.1291 60.3312 35.0287C60.3884 34.9717 60.4515 34.9248 60.5171 34.878C60.5522 34.8493 60.5872 34.8203 60.6219 34.7911C60.6397 34.7768 60.6574 34.7625 60.6757 34.7477C60.7189 34.7118 60.7608 34.6754 60.8024 34.6376C60.9731 34.4828 61.1477 34.3589 61.3456 34.2421C61.3876 34.217 61.4295 34.1919 61.4715 34.1668C61.5405 34.1255 61.6096 34.0842 61.6788 34.0431C61.8305 33.953 61.9813 33.8614 62.1306 33.7671C62.229 33.7055 62.229 33.7055 62.2727 33.7055Z" fill="#FEFEFE"/>
<path d="M44.5986 73.3731C44.7939 73.3731 44.9892 73.3731 45.1904 73.3731C45.1904 74.2388 45.1904 75.1045 45.1904 75.9964C45.5159 75.9964 45.8413 75.9964 46.1767 75.9964C46.1701 75.9702 46.1636 75.9439 46.1569 75.9169C46.1524 75.8671 46.1487 75.8177 46.1458 75.7678C46.1442 75.7418 46.1425 75.7158 46.1408 75.689C46.132 75.5039 46.1367 75.3202 46.152 75.1356C46.1537 75.1154 46.1553 75.0953 46.157 75.0745C46.2065 74.5253 46.2065 74.5253 46.2753 74.3866C46.3288 74.371 46.3812 74.3577 46.4355 74.3456C46.4577 74.3405 46.4577 74.3405 46.4802 74.3352C46.6206 74.3031 46.758 74.2841 46.9021 74.2825C46.9165 74.2824 46.9309 74.2822 46.9457 74.282C46.976 74.2818 47.0064 74.2816 47.0367 74.2814C47.0671 74.2812 47.0975 74.2808 47.1279 74.2802C47.457 74.2738 47.7879 74.3181 48.0456 74.5456C48.4945 75.0425 48.307 76.021 48.307 76.533C47.0832 76.533 45.8595 76.533 44.5986 76.533C44.5986 75.4902 44.5986 74.4474 44.5986 73.3731ZM46.8079 74.8238C46.7691 75.0413 46.747 75.2526 46.745 75.4735C46.7447 75.4889 46.7445 75.5043 46.7442 75.5202C46.744 75.6836 46.7675 75.8301 46.7881 75.9964C47.0876 75.9964 47.387 75.9964 47.6955 75.9964C47.6967 75.8726 47.6979 75.7488 47.6992 75.6213C47.6997 75.5826 47.7003 75.544 47.7008 75.5041C47.7064 75.183 47.7064 75.183 47.5529 74.9113C47.3594 74.7569 47.0365 74.796 46.8079 74.8238Z" fill="#FDFDFD"/>
<path d="M67.0252 74.2814C67.0489 74.2815 67.0727 74.2816 67.0972 74.2816C67.1846 74.2819 67.272 74.2828 67.3594 74.2835C67.5555 74.2848 67.7516 74.286 67.9536 74.2873C67.9536 75.0283 67.9536 75.7694 67.9536 76.533C67.2351 76.5354 67.2351 76.5354 66.9323 76.5359C66.7238 76.5362 66.5153 76.5366 66.3069 76.5375C66.155 76.5381 66.0031 76.5384 65.8513 76.5386C65.771 76.5387 65.6907 76.5388 65.6104 76.5393C64.5467 76.5448 64.5467 76.5448 64.1615 76.1946C63.9548 75.9768 63.8824 75.7214 63.8828 75.4275C63.8828 75.408 63.8828 75.3884 63.8828 75.3683C63.8863 75.124 63.9286 74.8814 63.9889 74.645C64.1226 74.6581 64.2528 74.6797 64.3846 74.7058C64.4036 74.7095 64.4225 74.7133 64.442 74.7171C64.4883 74.7261 64.5344 74.7352 64.5806 74.7444C64.5838 74.8466 64.5717 74.9392 64.551 75.0387C64.5105 75.2536 64.4655 75.5248 64.5769 75.7244C64.6739 75.8632 64.8023 75.924 64.9643 75.9587C65.1477 75.9907 65.3358 75.9807 65.5213 75.979C65.5602 75.9788 65.5991 75.9786 65.638 75.9785C65.7327 75.978 65.8273 75.9773 65.9219 75.9765C65.9179 75.9635 65.9139 75.9506 65.9097 75.9372C65.7905 75.5478 65.7931 75.0922 65.9774 74.7232C66.1016 74.5166 66.2805 74.3945 66.5126 74.331C66.6858 74.2907 66.8479 74.2793 67.0252 74.2814ZM66.5569 74.9257C66.445 75.0737 66.4453 75.2403 66.4471 75.4201C66.4469 75.4424 66.4467 75.4647 66.4464 75.4877C66.447 75.6472 66.4597 75.7863 66.5581 75.9156C66.6602 75.9928 66.7687 76.0013 66.8933 76.0003C66.917 76.0002 66.9407 76.0001 66.9651 76C66.9947 75.9996 67.0244 75.9992 67.0549 75.9989C67.1497 75.9981 67.2445 75.9972 67.3422 75.9964C67.3422 75.6094 67.3422 75.2225 67.3422 74.8238C66.9188 74.7853 66.9188 74.7853 66.5569 74.9257Z" fill="#FDFDFD"/>
<path d="M20.4521 75.7305C20.47 75.7304 20.4879 75.7303 20.5064 75.7302C20.5669 75.73 20.6273 75.7301 20.6878 75.7303C20.7314 75.7303 20.775 75.7301 20.8186 75.73C20.9388 75.7297 21.059 75.7298 21.1791 75.73C21.2953 75.73 21.4115 75.7298 21.5277 75.7297C21.7801 75.7293 22.0325 75.7292 22.2848 75.7293C22.5057 75.7294 22.7266 75.7294 22.9475 75.7293C22.9771 75.7293 23.0067 75.7293 23.0363 75.7292C23.0809 75.7292 23.1255 75.7292 23.1701 75.7292C23.5849 75.729 23.9997 75.7289 24.4145 75.729C24.4379 75.729 24.4379 75.729 24.4619 75.729C24.5889 75.7291 24.716 75.7291 24.8431 75.7292C25.3387 75.7294 25.8344 75.7292 26.33 75.7288C26.8866 75.7282 27.4432 75.728 27.9998 75.7281C28.0591 75.7281 28.1185 75.7282 28.1778 75.7282C28.1924 75.7282 28.207 75.7282 28.222 75.7282C28.4428 75.7282 28.6635 75.7281 28.8843 75.7278C29.1352 75.7275 29.3862 75.7275 29.6372 75.7279C29.7653 75.728 29.8934 75.7281 30.0215 75.7278C30.1387 75.7275 30.2559 75.7276 30.3731 75.728C30.4156 75.728 30.4581 75.728 30.5006 75.7278C30.5582 75.7275 30.6157 75.7277 30.6733 75.7281C30.6983 75.7278 30.6983 75.7278 30.7238 75.7275C30.8029 75.7285 30.8409 75.732 30.9091 75.7762C30.971 75.8404 30.9864 75.8754 30.9945 75.9653C30.9866 76.0561 30.9573 76.1025 30.8996 76.1703C30.8254 76.2326 30.7307 76.2178 30.6397 76.2177C30.613 76.2177 30.613 76.2177 30.5858 76.2178C30.5257 76.2179 30.4655 76.2179 30.4054 76.2179C30.3621 76.218 30.3187 76.2181 30.2754 76.2181C30.1559 76.2183 30.0364 76.2184 29.9169 76.2185C29.8014 76.2185 29.6858 76.2187 29.5703 76.2189C29.2608 76.2193 28.9512 76.2195 28.6417 76.2197C28.4953 76.2197 28.3489 76.2198 28.2025 76.22C27.7016 76.2203 27.2007 76.2206 26.6997 76.2208C26.6683 76.2208 26.6368 76.2208 26.6054 76.2208C26.5898 76.2208 26.5742 76.2208 26.5581 76.2208C26.4791 76.2208 26.4 76.2208 26.321 76.2209C26.3053 76.2209 26.2896 76.2209 26.2735 76.2209C25.7648 76.221 25.2561 76.2215 24.7474 76.2222C24.2098 76.2228 23.6721 76.2232 23.1345 76.2233C23.0755 76.2233 23.0165 76.2233 22.9576 76.2233C22.943 76.2233 22.9285 76.2233 22.9135 76.2233C22.6795 76.2234 22.4456 76.2237 22.2116 76.2241C21.9765 76.2245 21.7414 76.2246 21.5063 76.2244C21.3789 76.2243 21.2515 76.2244 21.1241 76.2247C21.0075 76.2251 20.891 76.2251 20.7745 76.2248C20.7322 76.2247 20.6899 76.2248 20.6477 76.225C20.5904 76.2253 20.5332 76.2252 20.4759 76.2248C20.4511 76.2251 20.4511 76.2251 20.4258 76.2255C20.3212 76.2242 20.2623 76.2048 20.1789 76.1355C20.132 76.0753 20.1324 76.0113 20.1345 75.936C20.1439 75.8624 20.1796 75.8176 20.2294 75.7656C20.3011 75.7246 20.3719 75.7298 20.4521 75.7305Z" fill="#E9183E"/>
<path d="M76.7233 75.7354C76.7412 75.7353 76.759 75.7353 76.7774 75.7352C76.838 75.7351 76.8985 75.7351 76.9591 75.7351C77.0026 75.735 77.0462 75.735 77.0898 75.7349C77.21 75.7347 77.3303 75.7346 77.4506 75.7346C77.5668 75.7345 77.683 75.7343 77.7992 75.7342C78.1107 75.7338 78.4222 75.7336 78.7336 75.7334C78.8809 75.7333 79.0282 75.7332 79.1755 75.7331C79.6794 75.7327 80.1833 75.7324 80.6873 75.7323C80.7189 75.7323 80.7506 75.7323 80.7822 75.7323C80.7979 75.7323 80.8136 75.7322 80.8298 75.7322C80.9093 75.7322 80.9888 75.7322 81.0683 75.7322C81.0841 75.7322 81.0999 75.7322 81.1161 75.7322C81.628 75.732 82.1398 75.7315 82.6517 75.7309C83.1925 75.7302 83.7334 75.7298 84.2742 75.7297C84.3336 75.7297 84.3929 75.7297 84.4523 75.7297C84.4669 75.7297 84.4815 75.7297 84.4965 75.7297C84.732 75.7297 84.9674 75.7294 85.2029 75.7289C85.4394 75.7285 85.6759 75.7284 85.9124 75.7286C86.0406 75.7287 86.1688 75.7287 86.297 75.7283C86.4143 75.7279 86.5315 75.728 86.6488 75.7283C86.6913 75.7283 86.7339 75.7282 86.7764 75.728C86.834 75.7277 86.8916 75.7279 86.9492 75.7282C86.9659 75.728 86.9826 75.7278 86.9998 75.7276C87.0785 75.7285 87.117 75.7321 87.185 75.7756C87.2541 75.8481 87.2648 75.8945 87.2632 75.9952C87.249 76.0859 87.2107 76.1316 87.1461 76.1951C87.069 76.221 86.996 76.2178 86.9157 76.2177C86.8891 76.2177 86.8891 76.2177 86.8618 76.2178C86.8017 76.2179 86.7416 76.2179 86.6814 76.2179C86.6381 76.218 86.5948 76.2181 86.5514 76.2181C86.4319 76.2183 86.3124 76.2184 86.1929 76.2185C86.0774 76.2185 85.9619 76.2187 85.8464 76.2189C85.5368 76.2193 85.2273 76.2195 84.9177 76.2197C84.7713 76.2197 84.6249 76.2198 84.4785 76.22C83.9776 76.2203 83.4767 76.2206 82.9758 76.2208C82.9443 76.2208 82.9128 76.2208 82.8814 76.2208C82.8658 76.2208 82.8502 76.2208 82.8341 76.2208C82.7551 76.2208 82.6761 76.2208 82.597 76.2209C82.5814 76.2209 82.5657 76.2209 82.5495 76.2209C82.0408 76.221 81.5321 76.2215 81.0234 76.2222C80.4858 76.2228 79.9482 76.2232 79.4105 76.2233C79.3515 76.2233 79.2926 76.2233 79.2336 76.2233C79.219 76.2233 79.2045 76.2233 79.1896 76.2233C78.9556 76.2234 78.7216 76.2237 78.4876 76.2241C78.2525 76.2245 78.0174 76.2246 77.7824 76.2244C77.6549 76.2243 77.5275 76.2244 77.4001 76.2247C77.2836 76.2251 77.167 76.2251 77.0505 76.2248C77.0082 76.2247 76.966 76.2248 76.9237 76.225C76.8664 76.2253 76.8092 76.2252 76.7519 76.2248C76.7271 76.2251 76.7271 76.2251 76.7018 76.2255C76.5973 76.2242 76.5381 76.2051 76.455 76.1355C76.4015 76.0565 76.3995 75.9695 76.4155 75.8772C76.4918 75.7393 76.579 75.7351 76.7233 75.7354Z" fill="#E9183E"/>
<path d="M51.7741 74.4861C52.0757 74.7461 52.1415 75.0535 52.1735 75.4399C52.1735 75.8006 52.1735 76.1613 52.1735 76.533C51.3663 76.533 50.5592 76.533 49.7275 76.533C49.7275 74.8676 49.7275 74.8676 50.0284 74.5597C50.4507 74.1951 51.3199 74.1525 51.7741 74.4861ZM50.4666 74.9644C50.2618 75.2355 50.339 75.7185 50.339 75.9964C50.7426 75.9964 51.1462 75.9964 51.562 75.9964C51.6049 75.4332 51.6049 75.4332 51.3919 74.9269C51.1558 74.7535 50.682 74.7586 50.4666 74.9644Z" fill="#FDFDFD"/>
<path d="M54.5601 36.5673C54.7433 36.6355 54.8727 36.8777 54.9546 37.0443C55.1105 37.3916 55.2815 37.781 55.3492 38.1572C55.2645 38.2187 55.1799 38.2803 55.0953 38.3419C55.0785 38.3541 55.0616 38.3664 55.0442 38.3791C55.0122 38.4024 54.9802 38.4257 54.9482 38.449C54.9188 38.4703 54.8895 38.4917 54.8602 38.513C54.8309 38.5343 54.8016 38.5556 54.7723 38.5769C54.698 38.6309 54.6238 38.685 54.5496 38.7392C54.3921 38.8541 54.234 38.9681 54.0749 39.0808C53.9567 39.1647 53.8394 39.2499 53.7222 39.3354C53.6227 39.4079 53.523 39.4801 53.4229 39.5518C53.3565 39.5994 53.2906 39.6476 53.2249 39.6961C53.201 39.7137 53.201 39.7137 53.1766 39.7317C53.1454 39.7547 53.1143 39.7778 53.0833 39.8009C53.0125 39.853 52.9484 39.8989 52.8638 39.9259C52.9151 39.3869 53.1592 38.9195 53.4103 38.4507C53.553 38.1843 53.6866 37.915 53.8106 37.6392C54.2209 36.7382 54.2209 36.7382 54.5601 36.5673Z" fill="#E91B41"/>
<path d="M68.6831 73.3731C68.8849 73.3731 69.0867 73.3731 69.2946 73.3731C69.2946 74.4158 69.2946 75.4586 69.2946 76.533C69.0928 76.533 68.891 76.533 68.6831 76.533C68.6831 75.4902 68.6831 74.4474 68.6831 73.3731Z" fill="#FDFDFD"/>
<path d="M62.1063 37.8711C62.3978 38.0402 62.5529 38.4276 62.6972 38.7159C62.7249 38.7709 62.753 38.8255 62.7813 38.8802C62.7979 38.9124 62.8144 38.9447 62.8309 38.977C62.8386 38.9918 62.8463 39.0065 62.8543 39.0218C62.8722 39.0574 62.8881 39.0942 62.9036 39.131C62.8939 39.1605 62.8939 39.1605 62.8839 39.1906C62.8352 39.2074 62.7894 39.22 62.7394 39.2312C62.7248 39.2347 62.7103 39.2381 62.6952 39.2416C62.6643 39.2489 62.6334 39.256 62.6024 39.263C62.5552 39.2737 62.5081 39.2848 62.4611 39.296C62.431 39.303 62.4009 39.31 62.3708 39.3169C62.3568 39.3202 62.3428 39.3235 62.3284 39.3269C62.2491 39.3446 62.176 39.353 62.0949 39.3496C62.0868 39.3346 62.0787 39.3197 62.0703 39.3043C62.0317 39.2332 61.993 39.1622 61.9543 39.0912C61.9473 39.0783 61.9403 39.0654 61.933 39.0521C61.8212 38.8472 61.7062 38.6444 61.5871 38.4437C61.5763 38.4254 61.5655 38.407 61.5544 38.3881C61.5449 38.3722 61.5354 38.3563 61.5257 38.34C61.5043 38.2986 61.4923 38.2624 61.4834 38.2168C61.549 38.1754 61.6146 38.1341 61.6802 38.0927C61.7135 38.0718 61.7467 38.0508 61.7799 38.0299C61.8009 38.0167 61.8219 38.0034 61.8436 37.9897C61.8629 37.9776 61.8822 37.9654 61.9022 37.9528C61.9202 37.9416 61.9382 37.9303 61.9568 37.9187C61.9744 37.9072 61.9919 37.8956 62.01 37.8837C62.0554 37.8591 62.0554 37.8591 62.1063 37.8711Z" fill="#FEFEFE"/>
<path d="M65.7736 39.803C65.8164 39.8041 65.8591 39.8053 65.9018 39.8067C65.9215 39.8063 65.9215 39.8063 65.9415 39.8059C66.1804 39.8016 66.1804 39.8016 66.2705 39.8728C66.3352 39.9418 66.3834 40.0207 66.4302 40.1028C66.4537 40.1437 66.4785 40.1832 66.504 40.2229C66.6829 40.5047 66.772 40.7801 66.7214 41.1179C66.7125 41.1581 66.7019 41.1979 66.6909 41.2376C66.4233 41.2163 66.2568 41.0127 66.0905 40.824C66.067 40.7962 66.0436 40.7685 66.0202 40.7407C66.002 40.7199 65.9837 40.699 65.9654 40.6782C65.599 40.2579 65.599 40.2579 65.5801 40.0601C65.591 39.9279 65.6328 39.804 65.7736 39.803Z" fill="#FEFEFE"/>
<path d="M64.6569 39.3459C64.687 39.3459 64.687 39.3459 64.7177 39.3459C64.8263 39.3466 64.8263 39.3466 64.8763 39.3496C64.8899 39.3504 64.9035 39.3512 64.9176 39.3521C64.9795 39.3807 64.9958 39.4322 65.0264 39.492C65.0362 39.5109 65.0362 39.5109 65.0462 39.5301C65.0671 39.5704 65.0876 39.6109 65.1081 39.6514C65.1283 39.6908 65.1486 39.7302 65.1689 39.7695C65.1824 39.7957 65.1958 39.8219 65.2092 39.8482C65.2433 39.9146 65.2786 39.9798 65.3168 40.0439C65.328 40.0627 65.328 40.0627 65.3393 40.0818C65.3599 40.1162 65.3808 40.1503 65.4017 40.1844C65.4286 40.2439 65.4286 40.2439 65.4261 40.2979C65.4018 40.3618 65.3601 40.3975 65.3103 40.4426C65.2412 40.4169 65.1822 40.3865 65.1208 40.3457C65.1033 40.3341 65.0858 40.3225 65.0677 40.3106C65.0489 40.298 65.0301 40.2854 65.0107 40.2725C64.9699 40.2455 64.9292 40.2184 64.8884 40.1914C64.8671 40.1773 64.8458 40.1631 64.8239 40.1485C64.7575 40.1045 64.691 40.0607 64.6244 40.0169C64.3986 39.8685 64.1731 39.7197 63.9492 39.5682C64.0059 39.5079 64.0543 39.4583 64.1304 39.4254C64.1437 39.4193 64.157 39.4133 64.1707 39.4071C64.3323 39.3545 64.4879 39.3438 64.6569 39.3459Z" fill="#FEFEFE"/>
<path d="M61.8389 75.8573C62.0537 75.8573 62.2685 75.8573 62.4898 75.8573C62.4898 76.0803 62.4898 76.3032 62.4898 76.533C62.275 76.533 62.0602 76.533 61.8389 76.533C61.8389 76.31 61.8389 76.087 61.8389 75.8573Z" fill="#FDFDFD"/>
<path d="M60.7734 75.8573C60.9817 75.8573 61.19 75.8573 61.4046 75.8573C61.4046 76.0803 61.4046 76.3032 61.4046 76.533C61.1963 76.533 60.988 76.533 60.7734 76.533C60.7734 76.31 60.7734 76.087 60.7734 75.8573Z" fill="#FDFDFD"/>
<path d="M71.3265 29.075C71.4196 29.0882 71.4636 29.1512 71.5212 29.2203C71.5317 29.2327 71.5422 29.2452 71.553 29.2579C71.7231 29.4659 71.7938 29.6605 71.7801 29.9295C71.7577 30.0912 71.7577 30.0912 71.7012 30.1482C71.5843 30.1506 71.5169 30.1051 71.4281 30.0311C71.3421 29.9462 71.2536 29.835 71.2446 29.7098C71.2444 29.5755 71.2578 29.4452 71.2759 29.3122C71.2786 29.2915 71.2812 29.2707 71.284 29.2494C71.3041 29.0975 71.3041 29.0975 71.3265 29.075Z" fill="#FEFEFE"/>
<path d="M33.9868 78.0434C34.1886 78.0434 34.3904 78.0434 34.5983 78.0434C34.5983 78.2204 34.5983 78.3975 34.5983 78.58C34.3965 78.58 34.1947 78.58 33.9868 78.58C33.9868 78.4029 33.9868 78.2258 33.9868 78.0434Z" fill="#FDFDFD"/>
<path d="M33.2368 78.0434C33.4386 78.0434 33.6404 78.0434 33.8483 78.0434C33.8483 78.2204 33.8483 78.3975 33.8483 78.58C33.6465 78.58 33.4447 78.58 33.2368 78.58C33.2368 78.4029 33.2368 78.2258 33.2368 78.0434Z" fill="#FDFDFD"/>
<path d="M55.4082 76.9305C55.61 76.9305 55.8118 76.9305 56.0197 76.9305C56.0197 77.1075 56.0197 77.2846 56.0197 77.467C55.8179 77.467 55.6161 77.467 55.4082 77.467C55.4082 77.29 55.4082 77.1129 55.4082 76.9305Z" fill="#FDFDFD"/>
<path d="M54.6587 76.9305C54.8605 76.9305 55.0623 76.9305 55.2702 76.9305C55.2702 77.1075 55.2702 77.2846 55.2702 77.467C55.0684 77.467 54.8666 77.467 54.6587 77.467C54.6587 77.29 54.6587 77.1129 54.6587 76.9305Z" fill="#FDFDFD"/>
<path d="M51.0293 73.5122C51.2311 73.5122 51.4329 73.5122 51.6408 73.5122C51.6408 73.6893 51.6408 73.8664 51.6408 74.0488C51.439 74.0488 51.2372 74.0488 51.0293 74.0488C51.0293 73.8717 51.0293 73.6946 51.0293 73.5122Z" fill="#FDFDFD"/>
<path d="M50.2798 73.5122C50.4816 73.5122 50.6834 73.5122 50.8913 73.5122C50.8913 73.6893 50.8913 73.8664 50.8913 74.0488C50.6895 74.0488 50.4877 74.0488 50.2798 74.0488C50.2798 73.8717 50.2798 73.6946 50.2798 73.5122Z" fill="#FDFDFD"/>
<path d="M42.8628 73.5122C43.0646 73.5122 43.2664 73.5122 43.4743 73.5122C43.4743 73.6893 43.4743 73.8664 43.4743 74.0488C43.2725 74.0488 43.0707 74.0488 42.8628 74.0488C42.8628 73.8717 42.8628 73.6946 42.8628 73.5122Z" fill="#FDFDFD"/>
<path d="M42.1528 73.5122C42.3546 73.5122 42.5564 73.5122 42.7643 73.5122C42.7643 73.6893 42.7643 73.8664 42.7643 74.0488C42.5625 74.0488 42.3607 74.0488 42.1528 74.0488C42.1528 73.8717 42.1528 73.6946 42.1528 73.5122Z" fill="#FDFDFD"/>
<path d="M40.062 73.4327C40.2638 73.4327 40.4656 73.4327 40.6735 73.4327C40.6735 73.6032 40.6735 73.7737 40.6735 73.9494C40.4717 73.9494 40.2699 73.9494 40.062 73.9494C40.062 73.7789 40.062 73.6084 40.062 73.4327Z" fill="#FDFDFD"/>
<path d="M66.6909 73.3731C66.8927 73.3731 67.0945 73.3731 67.3024 73.3731C67.3024 73.5436 67.3024 73.7141 67.3024 73.8898C67.1006 73.8898 66.8988 73.8898 66.6909 73.8898C66.6909 73.7193 66.6909 73.5488 66.6909 73.3731Z" fill="#FDFDFD"/>
<path d="M50.4375 77.4074C50.7695 77.4074 51.1015 77.4074 51.4435 77.4074C51.4435 77.4796 51.4435 77.5517 51.4435 77.626C51.1115 77.626 50.7795 77.626 50.4375 77.626C50.4375 77.5539 50.4375 77.4817 50.4375 77.4074Z" fill="#FDFDFD"/>
<path d="M50.4375 76.9503C50.7695 76.9503 51.1015 76.9503 51.4435 76.9503C51.4435 77.0225 51.4435 77.0946 51.4435 77.1689C51.1115 77.1689 50.7795 77.1689 50.4375 77.1689C50.4375 77.0968 50.4375 77.0246 50.4375 76.9503Z" fill="#FDFDFD"/>
<path d="M65.6652 41.2376C65.7734 41.2806 65.8141 41.3747 65.8624 41.4761C65.8916 41.561 65.8888 41.6338 65.855 41.717C65.8024 41.8108 65.7206 41.8667 65.6257 41.9133C65.5708 41.9264 65.5708 41.9264 65.5271 41.9332C65.5132 41.8898 65.4997 41.8463 65.4864 41.8027C65.4789 41.7785 65.4713 41.7543 65.4635 41.7294C65.442 41.6248 65.4497 41.5518 65.498 41.4565C65.51 41.4384 65.5221 41.4202 65.5345 41.4015C65.5464 41.3832 65.5584 41.3649 65.5707 41.346C65.6 41.3055 65.6287 41.2714 65.6652 41.2376Z" fill="#FEFEFE"/>
</svg>
